<?xml version="1.0" encoding="UTF-8" standalone="no"?> <svg xmlns:inkscape="http://www.inkscape.org/namespaces/inkscape" xmlns:sodipodi="http://sodipodi.sourceforge.net/DTD/sodipodi-0.dtd" xmlns="http://www.w3.org/2000/svg" xmlns:svg="http://www.w3.org/2000/svg" version="1.1" id="svg18" width="800" height="533.33331" viewBox="0 0 800 533.33331" sodipodi:docname="Incscape.svg" inkscape:version="1.2.1 (9c6d41e, 2022-07-14)"><defs id="defs22"><clipPath id="clipPath42"><path d="M 0,400 H 600 V 0 H 0 Z" id="path40"></path></clipPath><clipPath id="clipPath536"><path d="M 0,400 H 600 V 0 H 0 Z" id="path534"></path></clipPath></defs><g id="g26" inkscape:groupmode="layer" inkscape:label="Page 1" transform="matrix(3.1345979,0,0,-3.2330371,-539.56207,933.00615)" style="display:inline"><g id="g28" transform="translate(334.8195,274.4693)"><path d="m 0,0 h 13.841 l 1.16,1.16 V 13.349 H 10.578 V 10.09 Z" style="fill:#23c6c5;fill-opacity:1;fill-rule:nonzero;stroke:none" id="path30"></path></g><g id="g32" transform="translate(279.9226,274.4693)"><path d="M 0,0 H 9.965 V 13.349 H 6.559 v -6.79 z" style="fill:#23c6c5;fill-opacity:1;fill-rule:nonzero;stroke:none" id="path34"></path></g><g id="g36"><g id="g38" clip-path="url(#clipPath42)"><g id="g44" transform="translate(256.0502,276.7351)"><path d="M 0,0 V 11.084 H -4.069 V 9.662 c 0.842,-0.234 1.465,-0.998 1.465,-1.915 0,-1.102 -0.894,-1.996 -1.996,-1.996 -1.102,0 -1.996,0.894 -1.996,1.996 0,0.917 0.623,1.682 1.465,1.915 v 1.422 H -8.846 V 0.386 l -2.909,-2.063 c 0.425,-0.76 0.346,-1.725 -0.3,-2.371 -0.092,-0.093 -0.209,-0.138 -0.313,-0.209 l 6.419,-11.114 v 9.422 z" style="fill:#23c6c5;fill-opacity:1;fill-rule:nonzero;stroke:none" id="path46"></path></g><g id="g48" transform="translate(243.5445,275.8083)"><path d="M 0,0 2.598,1.752 V 12.01 H -8.722 L -1.832,0.081 C -1.253,0.354 -0.569,0.319 0,0" style="fill:#23c6c5;fill-opacity:1;fill-rule:nonzero;stroke:none" id="path50"></path></g><g id="g52" transform="translate(273.907,274.4693)"><path d="m 0,0 h 4.514 l 6.999,6.999 v 6.35 H 8.328 V 8.328 Z" style="fill:#23c6c5;fill-opacity:1;fill-rule:nonzero;stroke:none" id="path54"></path></g><g id="g56" transform="translate(322.6724,274.4693)"><path d="m 0,0 h 5.851 v 3.04 l 10.31,10.309 h -4.78 L 6.982,8.951 C 7.408,8.191 7.329,7.226 6.683,6.58 5.904,5.8 4.64,5.8 3.861,6.58 c -0.78,0.779 -0.78,2.043 0,2.822 0.646,0.646 1.611,0.725 2.371,0.299 L 9.88,13.349 H 0.443 c 0.191,-0.303 0.32,-0.65 0.32,-1.036 0,-1.102 -0.894,-1.996 -1.996,-1.996 -1.102,0 -1.995,0.894 -1.995,1.996 0,0.386 0.129,0.733 0.319,1.036 h -7.805 v -2.635 z" style="fill:#23c6c5;fill-opacity:1;fill-rule:nonzero;stroke:none" id="path58"></path></g><g id="g60" transform="translate(329.585,274.4693)"><path d="m 0,0 h 3.696 l 11.055,10.545 v 2.804 H 10.749 L 0,2.6 Z" style="fill:#23c6c5;fill-opacity:1;fill-rule:nonzero;stroke:none" id="path62"></path></g><g id="g64" transform="translate(359.6512,278.8347)"><path d="m 0,0 c 0,-1.228 -0.995,-2.223 -2.223,-2.223 -0.426,0 -0.821,0.127 -1.159,0.335 l -2.477,-2.477 h 4.1 L 5.959,8.984 H -1.692 V 2.152 C -0.722,1.913 0,1.044 0,0" style="fill:#23c6c5;fill-opacity:1;fill-rule:nonzero;stroke:none" id="path66"></path></g><g id="g68" transform="translate(306.9018,271.0271)"><path d="M 0,0 V 3.442 H 1.373 L 0.298,4.516 V 16.792 H -4.366 V 4.366 Z" style="fill:#23c6c5;fill-opacity:1;fill-rule:nonzero;stroke:none" id="path70"></path></g><g id="g72" transform="translate(257.9539,274.4693)"><path d="m 0,0 h 14.452 l 8.768,8.768 v 4.581 H 8.775 l 3.084,-3.084 c 0.76,0.426 1.725,0.347 2.371,-0.299 0.779,-0.779 0.779,-2.043 0,-2.822 -0.779,-0.779 -2.043,-0.779 -2.822,0 -0.647,0.646 -0.725,1.611 -0.3,2.371 L 7.273,13.349 H -0.842 V 1.826 l -5.949,-5.949 v -10.82 l 4.887,-8.462 v 18.86 h 1.062 V -25.243 L 5.925,-36.96 v 26.7 z" style="fill:#23c6c5;fill-opacity:1;fill-rule:nonzero;stroke:none" id="path74"></path></g><g id="g76" transform="translate(309.7754,274.4693)"><path d="M 0,0 H 11.396 L 1.122,10.274 v 3.075 H -1.514 V 1.514 Z" style="fill:#23c6c5;fill-opacity:1;fill-rule:nonzero;stroke:none" id="path78"></path></g><g id="g80" transform="translate(355.206,278.8347)"><path d="M 0,0 C 0,1.044 0.722,1.913 1.692,2.152 V 8.984 H -4.324 V -3.645 l -0.72,-0.72 h 2.129 l 3.234,3.234 C 0.121,-0.799 0,-0.415 0,0" style="fill:#23c6c5;fill-opacity:1;fill-rule:nonzero;stroke:none" id="path82"></path></g><g id="g84" transform="translate(333.6922,243.1297)"><path d="m 0,0 -0.067,-10.263 c 0.073,-0.022 0.131,-0.069 0.2,-0.099 l 4.938,8.569 V 0 Z" style="fill:#23c6c5;fill-opacity:1;fill-rule:nonzero;stroke:none" id="path86"></path></g><g id="g88" transform="translate(301.566,194.3145)"><path d="m 0,0 c -1.1,0 -2,0.89 -2,1.99 0,0.92 0.63,1.69 1.47,1.92 v 61.71 l -6.88,6.87 0.75,0.75 7.19,-7.19 V 3.91 C 1.37,3.68 1.99,2.91 1.99,1.99 1.99,0.89 1.1,0 0,0 m 5.34,48.82 v 26.39 l -5.43,5.43 V 93.5 H -4.38 V 80.25 L 4.6,71.27 v -29.1 c 0.84,-0.23 1.47,-1 1.47,-1.91 0,-1.11 -0.9,-2 -2,-2 -1.1,0 -1.99,0.89 -1.99,2 0,0.91 0.62,1.68 1.46,1.91 v 28.66 l -8.98,8.98 V 93.5 h -5.18 V 80.15 h 2.61 v -16.2 l 3.63,-4.56 V -0.19 c 0.84,-0.23 1.46,-0.99 1.46,-1.91 0,-1.1 -0.89,-2 -1.99,-2 -1.1,0 -2,0.9 -2,2 0,0.92 0.63,1.68 1.47,1.91 v 59.2 l -2.57,3.23 V 55.97 L -7.93,55.9 V 10.57 c 0.84,-0.23 1.46,-1 1.46,-1.91 0,-1.11 -0.89,-2 -1.99,-2 -1.11,0 -2,0.89 -2,2 0,0.91 0.62,1.68 1.46,1.91 v 9.65 l -6.08,10.54 V 13.92 c 0.84,-0.24 1.46,-1 1.46,-1.92 0,-1.1 -0.89,-1.99 -2,-1.99 -1.1,0 -1.99,0.89 -1.99,1.99 0,0.92 0.62,1.68 1.46,1.92 V 32.6 l -4.64,8.04 V 26.96 c 0.84,-0.23 1.46,-0.99 1.46,-1.91 0,-1.1 -0.89,-2 -1.99,-2 -1.1,0 -2,0.9 -2,2 0,0.92 0.62,1.68 1.47,1.91 v 15.52 l -5.18,8.96 v -5.36 c 0.85,-0.23 1.47,-1 1.47,-1.91 0,-1.11 -0.9,-2 -2,-2 -1.1,0 -1.99,0.89 -1.99,2 0,0.91 0.62,1.68 1.46,1.91 v 7.2 l -4.15,7.18 V 49.62 c 0.85,-0.23 1.47,-1 1.47,-1.91 0,-1.11 -0.9,-2 -2,-2 -1.1,0 -1.99,0.89 -1.99,2 0,0.91 0.62,1.68 1.46,1.91 V 62.3 l -3.33,5.76 V 41.36 L -8.01,-8.19 H 5.34 v 43.66 h 4.71 v 0.01 c 0,0.92 0.62,1.68 1.46,1.92 v 11.42 z" style="fill:#23c6c5;fill-opacity:1;fill-rule:nonzero;stroke:none" id="path90"></path></g><g id="g92" transform="translate(332.5641,232.8979)"><path d="M 0,0 0.069,10.232 H -6.428 V 7.389 c 0.842,-0.234 1.465,-0.999 1.465,-1.916 0,-1.102 -0.894,-1.995 -1.996,-1.995 -1.102,0 -1.996,0.893 -1.996,1.995 0,0.917 0.622,1.682 1.465,1.915 v 2.844 h -2.528 V 2.21 c 0.843,-0.234 1.465,-0.998 1.465,-1.915 0,-1.102 -0.894,-1.996 -1.996,-1.996 -1.102,0 -1.995,0.894 -1.995,1.996 0,0.917 0.622,1.681 1.465,1.915 v 8.022 h -7.344 V -1.187 c 0.842,-0.234 1.465,-0.998 1.465,-1.915 0,-0.006 -0.002,-0.01 -0.002,-0.016 H -1.118 C -1.378,-2.769 -1.534,-2.34 -1.52,-1.872 -1.493,-0.955 -0.849,-0.209 0,0" style="fill:#23c6c5;fill-opacity:1;fill-rule:nonzero;stroke:none" id="path94"></path></g><g id="g96" transform="translate(256.2581,135.5692)"><path d="m 0,0 v -2.605 h -4.483 v -2.284 h 4.398 v -2.605 h -4.398 v -4.348 H -7.19 V 0 Z" style="fill:#23c6c5;fill-opacity:1;fill-rule:nonzero;stroke:none" id="path98"></path></g><g id="g100" transform="translate(279.6871,132.4736)"><path d="M 0,0 -1.387,-4.348 H 1.387 Z M 5.752,-8.746 H 2.791 l -0.592,1.861 h -4.398 l -0.592,-1.861 h -2.961 l 4.027,11.842 h 3.45 z" style="fill:#23c6c5;fill-opacity:1;fill-rule:nonzero;stroke:none" id="path102"></path></g><g id="g104" transform="translate(309.2744,123.4909)"><path d="m 0,0 c -1.771,0 -3.243,0.586 -4.415,1.759 -1.162,1.173 -1.743,2.639 -1.743,4.398 0,1.759 0.581,3.22 1.743,4.382 1.161,1.184 2.633,1.776 4.415,1.776 1.06,0 2.041,-0.246 2.944,-0.736 C 3.845,11.088 4.556,10.42 5.075,9.574 L 2.74,8.221 C 2.48,8.683 2.111,9.042 1.633,9.296 1.153,9.549 0.609,9.676 0,9.676 c -1.061,0 -1.901,-0.321 -2.521,-0.964 -0.62,-0.632 -0.93,-1.484 -0.93,-2.555 0,-1.072 0.31,-1.922 0.93,-2.554 0.62,-0.643 1.46,-0.965 2.521,-0.965 0.598,0 1.142,0.13 1.633,0.39 0.49,0.259 0.859,0.614 1.107,1.065 L 5.075,2.74 C 4.567,1.895 3.863,1.226 2.96,0.736 2.058,0.245 1.071,0 0,0" style="fill:#23c6c5;fill-opacity:1;fill-rule:nonzero;stroke:none" id="path106"></path></g><g id="g108" transform="translate(332.3643,135.5692)"><path d="M 0,0 H 8.797 V -2.605 H 5.752 v -9.237 H 3.046 v 9.237 H 0 Z" style="fill:#23c6c5;fill-opacity:1;fill-rule:nonzero;stroke:none" id="path110"></path></g><g id="g112" transform="translate(361.462,129.6478)"><path d="m 0,0 c 0,-1.037 0.327,-1.883 0.981,-2.537 0.654,-0.655 1.477,-0.981 2.47,-0.981 0.981,0 1.798,0.326 2.453,0.981 C 6.569,-1.872 6.902,-1.026 6.902,0 6.902,1.026 6.569,1.872 5.904,2.538 5.249,3.192 4.432,3.519 3.451,3.519 2.458,3.519 1.635,3.192 0.981,2.538 0.327,1.884 0,1.038 0,0 M 7.815,-4.381 C 6.62,-5.565 5.165,-6.157 3.451,-6.157 c -1.714,0 -3.169,0.592 -4.364,1.776 -1.197,1.184 -1.794,2.644 -1.794,4.381 0,1.737 0.597,3.198 1.794,4.382 1.195,1.184 2.65,1.776 4.364,1.776 1.714,0 3.169,-0.592 4.364,-1.776 C 9.01,3.198 9.609,1.737 9.609,0 9.609,-1.737 9.01,-3.197 7.815,-4.381" style="fill:#23c6c5;fill-opacity:1;fill-rule:nonzero;stroke:none" id="path114"></path></g><g id="g116" transform="translate(394.922,133.0318)"><path d="M 0,0 H -2.03 V -3.046 H 0 c 0.372,0 0.691,0.147 0.956,0.44 0.265,0.293 0.397,0.654 0.397,1.083 0,0.429 -0.132,0.789 -0.397,1.082 C 0.691,-0.147 0.372,0 0,0 M 4.399,-9.304 H 1.488 l -2.233,3.89 H -2.03 v -3.89 H -4.737 V 2.537 H 0 c 1.127,0 2.086,-0.395 2.876,-1.184 0.789,-0.79 1.184,-1.748 1.184,-2.876 0,-0.71 -0.2,-1.376 -0.6,-1.996 C 3.059,-4.14 2.531,-4.618 1.878,-4.957 Z" style="fill:#23c6c5;fill-opacity:1;fill-rule:nonzero;stroke:none" id="path118"></path></g><g id="g120" transform="translate(424.4073,135.5692)"><path d="m 0,0 h 3.079 l -3.976,-7.291 v -4.551 h -2.706 v 4.551 L -7.579,0 H -4.5 l 2.25,-4.567 z" style="fill:#23c6c5;fill-opacity:1;fill-rule:nonzero;stroke:none" id="path122"></path></g><g id="g124" transform="translate(184.4709,171.8204)"><path d="m 0,0 h -11.957 v -3.431 h 3.604 l 4.11,-4.11 v 2.634 h 2.529 l -2.283,2.283 0.498,0.497 2.78,-2.78 h 2.261 c 2.199,0 4.043,-0.6 5.543,-1.779 h 9.167 C 15.82,-5.795 15.3,-4.946 14.7,-4.135 H 5.191 Z" style="fill:#0f4c4e;fill-opacity:1;fill-rule:nonzero;stroke:none" id="path126"></path></g><g id="g128" transform="translate(189.9076,168.3893)"><path d="M 0,0 H 8.725 C 8.423,0.367 8.111,0.73 7.771,1.079 7.574,1.283 7.365,1.461 7.161,1.652 H 2.068 l -3.936,3.936 0.21,0.209 c -0.728,0.09 -1.468,0.151 -2.237,0.151 h -9.197 l -0.36,-0.36 -0.361,0.36 h -3.581 V 4.135 h 12.203 z" style="fill:#0f4c4e;fill-opacity:1;fill-rule:nonzero;stroke:none" id="path130"></path></g><g id="g132" transform="translate(192.4726,150.5709)"><path d="m 0,0 c -0.542,-0.563 -1.161,-0.999 -1.816,-1.376 h 7.899 c 0.155,0.559 0.661,0.971 1.269,0.971 0.357,0 0.678,-0.144 0.915,-0.374 0.171,0.356 0.342,0.711 0.486,1.079 H 0.237 C 0.152,0.205 0.09,0.092 0,0" style="fill:#0f4c4e;fill-opacity:1;fill-rule:nonzero;stroke:none" id="path134"></path></g><g id="g136" transform="translate(198.5552,148.4912)"><path d="m 0,0 h -9.509 c -0.93,-0.293 -1.926,-0.476 -3.033,-0.476 h -5.786 V 0 h -2.039 l -5.674,5.674 v -8.62 l 1.362,1.363 h 7.157 c 0.155,0.559 0.662,0.971 1.27,0.971 0.73,0 1.323,-0.592 1.323,-1.323 0,-0.731 -0.593,-1.323 -1.323,-1.323 -0.608,0 -1.115,0.412 -1.27,0.971 h -6.865 l -1.654,-1.654 V -7.9 h 0.361 l 3.294,3.453 20.172,0.137 c 0.46,0.382 0.908,0.788 1.338,1.231 0.666,0.687 1.246,1.415 1.771,2.171 C 0.462,-0.778 0.121,-0.438 0,0" style="fill:#0f4c4e;fill-opacity:1;fill-rule:nonzero;stroke:none" id="path138"></path></g><g id="g140" transform="translate(173.8483,140.5915)"><path d="m 0,0 h 12.165 c 3.595,0 6.727,0.968 9.405,2.882 L 2.631,2.758 Z" style="fill:#0f4c4e;fill-opacity:1;fill-rule:nonzero;stroke:none" id="path142"></path></g><g id="g144" transform="translate(196.2871,170.7451)"><path d="M 0,0 C -2.152,1.783 -4.609,2.896 -7.367,3.348 L -4.02,0 Z" style="fill:#0f4c4e;fill-opacity:1;fill-rule:nonzero;stroke:none" id="path146"></path></g><g id="g148" transform="translate(193.8189,162.4339)"><path d="M 0,0 H 7.256 C 7.332,0.275 7.495,0.512 7.711,0.684 7.566,1.13 7.405,1.568 7.223,1.996 H -1.472 C -1.431,1.955 -1.387,1.919 -1.346,1.876 -0.795,1.325 -0.369,0.684 0,0" style="fill:#0f4c4e;fill-opacity:1;fill-rule:nonzero;stroke:none" id="path150"></path></g><g id="g152" transform="translate(180.2276,155.9975)"><path d="M 0,0 V 3.192 L -4.948,8.141 H -7.714 V 5.048 h 2.666 z" style="fill:#0f4c4e;fill-opacity:1;fill-rule:nonzero;stroke:none" id="path154"></path></g><g id="g156" transform="translate(194.9558,157.1476)"><path d="M 0,0 H 7.434 C 7.436,0.107 7.448,0.209 7.448,0.317 7.448,1.473 7.351,2.582 7.165,3.649 6.662,3.738 6.254,4.096 6.119,4.582 h -6.91 C -0.267,3.345 0.024,1.937 0.024,0.317 0.024,0.205 0.003,0.11 0,0" style="fill:#0f4c4e;fill-opacity:1;fill-rule:nonzero;stroke:none" id="path158"></path></g><g id="g160" transform="translate(180.2276,160.185)"><path d="M 0,0 V 3.099 L -4.401,7.5 H -7.714 V 4.657 h 3.057 z" style="fill:#0f4c4e;fill-opacity:1;fill-rule:nonzero;stroke:none" id="path162"></path></g><g id="g164" transform="translate(194.9022,156.4438)"><path d="M 0,0 C -0.144,-1.909 -0.685,-3.535 -1.637,-4.869 H 6.56 C 7.074,-3.351 7.374,-1.728 7.458,0 Z" style="fill:#0f4c4e;fill-opacity:1;fill-rule:nonzero;stroke:none" id="path166"></path></g><g id="g168" transform="translate(180.2276,149.1951)"><path d="m 0,0 v 5.807 l -5.34,5.34 H -7.714 V 5.965 L -1.748,0 Z" style="fill:#0f4c4e;fill-opacity:1;fill-rule:nonzero;stroke:none" id="path170"></path></g><g id="g172" transform="translate(206.7743,168.3893)"><path d="m 0,0 h 3.086 c 0.155,0.559 0.662,0.971 1.27,0.971 0.731,0 1.323,-0.592 1.323,-1.323 0,-0.236 -0.078,-0.446 -0.187,-0.638 0.312,0.184 0.613,0.397 0.887,0.671 0.583,0.583 0.952,1.244 1.144,1.971 H -0.844 C -0.692,1.052 -0.408,0.502 0,0" style="fill:#0f4c4e;fill-opacity:1;fill-rule:nonzero;stroke:none" id="path174"></path></g><g id="g176" transform="translate(210.1172,175.4946)"><path d="M 0,0 C -0.031,0 -0.06,-0.008 -0.091,-0.009 H 0.09 C 0.059,-0.008 0.031,0 0,0" style="fill:#0f4c4e;fill-opacity:1;fill-rule:nonzero;stroke:none" id="path178"></path></g><g id="g180" transform="translate(214.4556,171.1558)"><path d="M 0,0 C 0,1.188 -0.434,2.201 -1.302,3.037 -1.521,3.265 -1.754,3.459 -1.998,3.626 H -6.707 C -6.957,3.459 -7.197,3.265 -7.425,3.037 -8.26,2.201 -8.678,1.188 -8.678,0 c 0,-0.142 0.026,-0.274 0.038,-0.411 h 8.601 C -0.027,-0.274 0,-0.142 0,0" style="fill:#0f4c4e;fill-opacity:1;fill-rule:nonzero;stroke:none" id="path182"></path></g><g id="g184" transform="translate(209.8606,167.6854)"><path d="m 0,0 h -2.352 c 0.762,-0.568 1.627,-0.869 2.609,-0.869 0.156,0 0.301,0.027 0.451,0.042 C 0.368,-0.663 0.103,-0.37 0,0" style="fill:#0f4c4e;fill-opacity:1;fill-rule:nonzero;stroke:none" id="path186"></path></g><g id="g188" transform="translate(206.5009,157.1476)"><path d="m 0,0 h 3.907 c 0.155,0.559 0.662,0.971 1.27,0.971 0.73,0 1.323,-0.592 1.323,-1.323 0,-0.73 -0.593,-1.323 -1.323,-1.323 -0.608,0 -1.115,0.413 -1.27,0.971 H 0 v -4.869 h 4.908 c 0.155,0.559 0.662,0.971 1.27,0.971 0.441,0 0.813,-0.23 1.054,-0.563 V 7.283 H 0 Z" style="fill:#0f4c4e;fill-opacity:1;fill-rule:nonzero;stroke:none" id="path190"></path></g><g id="g192" transform="translate(212.6787,149.8998)"><path d="M 0,0 C -0.608,0 -1.115,0.413 -1.27,0.971 H -6.178 V -9.308 H 1.054 V 0.563 C 0.813,0.231 0.442,0 0,0" style="fill:#0f4c4e;fill-opacity:1;fill-rule:nonzero;stroke:none" id="path194"></path></g><g id="g196" transform="translate(218.247,149.762)"><path d="M 0,0 C 0.51,-1.989 1.49,-3.763 2.957,-5.314 4.402,-6.82 6.068,-7.846 7.95,-8.398 h 1.711 c 0.155,0.559 0.661,0.971 1.269,0.971 0.731,0 1.323,-0.592 1.323,-1.323 0,-0.034 -0.016,-0.063 -0.019,-0.096 2.065,0.136 3.796,0.815 5.197,2.031 H 6.815 Z" style="fill:#0f4c4e;fill-opacity:1;fill-rule:nonzero;stroke:none" id="path198"></path></g><g id="g200" transform="translate(227.8593,157.978)"><path d="m 0,0 c 0.887,0.481 1.892,0.74 3.036,0.74 1.67,0 3.068,-0.514 4.193,-1.543 0.096,-0.087 0.164,-0.192 0.252,-0.285 h 8.426 V 0.908 H 4.255 l -4.766,4.766 0.498,0.498 4.56,-4.56 h 11.36 V 4.163 H 8.677 L 5.404,6.77 C 4.335,7.177 3.149,7.393 1.83,7.393 c -2.84,0 -5.273,-0.851 -7.309,-2.526 h 0.612 z" style="fill:#0f4c4e;fill-opacity:1;fill-rule:nonzero;stroke:none" id="path202"></path></g><g id="g204" transform="translate(225.7719,155.9708)"><path d="m 0,0 c 0.25,0.44 0.543,0.853 0.929,1.205 0.173,0.158 0.364,0.281 0.55,0.415 l -4.55,4.55 h -1.1 C -4.303,6.041 -4.44,5.922 -4.568,5.785 -5.297,5.023 -5.896,4.2 -6.389,3.327 h 3.062 z" style="fill:#0f4c4e;fill-opacity:1;fill-rule:nonzero;stroke:none" id="path206"></path></g><g id="g208" transform="translate(236.7092,153.3425)"><path d="m 0,0 h 2.118 c 0.154,0.559 0.661,0.971 1.269,0.971 0.731,0 1.323,-0.592 1.323,-1.323 0,-0.73 -0.592,-1.323 -1.323,-1.323 -0.608,0 -1.114,0.413 -1.269,0.971 h -2.141 c -0.024,-0.361 -0.072,-0.708 -0.15,-1.035 h 7.23 V 2.843 H -0.808 C -0.302,2.049 -0.032,1.101 0,0" style="fill:#0f4c4e;fill-opacity:1;fill-rule:nonzero;stroke:none" id="path210"></path></g><g id="g212" transform="translate(243.7662,162.8451)"><path d="M 0,0 V 1.652 H -4.916 L -5.114,1.851 H -7.039 V 0.043 L -6.984,0 Z" style="fill:#0f4c4e;fill-opacity:1;fill-rule:nonzero;stroke:none" id="path214"></path></g><g id="g216" transform="translate(228.6584,147.9016)"><path d="m 0,0 c -0.724,0.257 -1.379,0.645 -1.958,1.175 -0.636,0.579 -1.064,1.294 -1.33,2.113 l -3.608,3.608 h -3.825 c -0.064,-0.544 -0.108,-1.098 -0.108,-1.672 0,-0.731 0.063,-1.433 0.167,-2.117 l 7.357,-7.358 H 7.738 c 0.111,0.122 0.226,0.235 0.331,0.364 v -0.364 h 7.039 v 1.676 H 2.575 Z" style="fill:#0f4c4e;fill-opacity:1;fill-rule:nonzero;stroke:none" id="path218"></path></g><g id="g220" transform="translate(225.12,152.4353)"><path d="m 0,0 c -0.022,0.228 -0.058,0.448 -0.058,0.69 0,0.809 0.132,1.532 0.378,2.182 l -3.286,3.287 h -3.14 C -6.568,5.191 -6.9,4.162 -7.09,3.066 h 4.024 z" style="fill:#0f4c4e;fill-opacity:1;fill-rule:nonzero;stroke:none" id="path222"></path></g><g id="g224" transform="translate(219.6141,136.108)"><path d="M 0,0 C 0.141,-0.255 0.309,-0.479 0.464,-0.717 L 2.558,1.479 Z" style="fill:#0f4c4e;fill-opacity:1;fill-rule:nonzero;stroke:none" id="path226"></path></g><g id="g228" transform="translate(231.28,136.6381)"><path d="m 0,0 c -1.591,0 -2.904,0.398 -3.94,1.193 l -3.987,-0.026 -2.882,-3.021 c 1.326,-1.775 3.104,-3.018 5.322,-3.744 l 3.535,3.535 h 12.119 c 0.809,0.963 1.417,2.077 1.8,3.36 L 3.885,1.244 C 2.945,0.424 1.658,0 0,0" style="fill:#0f4c4e;fill-opacity:1;fill-rule:nonzero;stroke:none" id="path230"></path></g><g id="g232" transform="translate(236.3362,150.8996)"><path d="m 0,0 c -0.273,-0.7 -0.685,-1.311 -1.248,-1.823 -1.125,-1.03 -2.523,-1.543 -4.193,-1.543 -0.33,0 -0.641,0.036 -0.95,0.076 l 1.579,-1.579 H 7.43 V 0 Z" style="fill:#0f4c4e;fill-opacity:1;fill-rule:nonzero;stroke:none" id="path234"></path></g><g id="g236" transform="translate(236.7276,141.7966)"><path d="m 0,0 c 0,-1.31 -0.317,-2.372 -0.922,-3.21 l 7.611,0.052 C 6.913,-2.186 7.039,-1.141 7.039,0 V 1.15 H 0 Z" style="fill:#0f4c4e;fill-opacity:1;fill-rule:nonzero;stroke:none" id="path238"></path></g><g id="g240" transform="translate(226.5738,130.8253)"><path d="m 0,0 c 1.345,-0.352 2.821,-0.551 4.465,-0.551 1.441,0 2.785,0.168 4.043,0.488 H 4.484 v 0.704 h 6.1 c 1.039,0.454 2.006,1.035 2.896,1.749 0.265,0.206 0.508,0.428 0.744,0.656 H 3.046 Z" style="fill:#0f4c4e;fill-opacity:1;fill-rule:nonzero;stroke:none" id="path242"></path></g><g id="g244" transform="translate(225.7846,139.6754)"><path d="m 0,0 -2.024,-1.17 2.85,0.019 C 0.52,-0.81 0.24,-0.433 0,0" style="fill:#0f4c4e;fill-opacity:1;fill-rule:nonzero;stroke:none" id="path246"></path></g><path d="m 249.069,162.845 h 7.232 v 1.652 h -7.232 z" style="fill:#0f4c4e;fill-opacity:1;fill-rule:nonzero;stroke:none" id="path248"></path><path d="m 249.069,159.59 h 7.232 v 2.551 h -7.232 z" style="fill:#0f4c4e;fill-opacity:1;fill-rule:nonzero;stroke:none" id="path250"></path><g id="g252" transform="translate(249.0686,157.8355)"><path d="m 0,0 c 0.051,0.006 0.098,0.025 0.15,0.025 0.731,0 1.324,-0.592 1.324,-1.323 0,-0.73 -0.593,-1.323 -1.324,-1.323 -0.052,0 -0.099,0.02 -0.15,0.026 V -6.232 H 7.232 V 1.051 H 0 Z" style="fill:#0f4c4e;fill-opacity:1;fill-rule:nonzero;stroke:none" id="path254"></path></g><path d="m 249.069,146.031 h 7.232 v 4.869 h -7.232 z" style="fill:#0f4c4e;fill-opacity:1;fill-rule:nonzero;stroke:none" id="path256"></path><g id="g258" transform="translate(248.3456,171.1558)"><path d="m 0,0 c 0,-0.428 0.073,-0.828 0.182,-1.214 h 8.307 c 0.112,0.386 0.189,0.786 0.189,1.214 0,0.682 -0.16,1.3 -0.446,1.866 H 0.429 C 0.154,1.3 0,0.682 0,0" style="fill:#0f4c4e;fill-opacity:1;fill-rule:nonzero;stroke:none" id="path260"></path></g><g id="g262" transform="translate(249.5986,168.0705)"><path d="m 0,0 c 0.868,-0.836 1.896,-1.254 3.086,-1.254 1.188,0 2.2,0.418 3.037,1.254 0.359,0.359 0.626,0.753 0.837,1.168 H -0.805 C -0.603,0.753 -0.346,0.359 0,0" style="fill:#0f4c4e;fill-opacity:1;fill-rule:nonzero;stroke:none" id="path264"></path></g><path d="m 249.069,140.592 h 7.232 v 4.735 h -7.232 z" style="fill:#0f4c4e;fill-opacity:1;fill-rule:nonzero;stroke:none" id="path266"></path><g id="g268" transform="translate(255.7212,174.193)"><path d="M 0,0 C -0.836,0.868 -1.848,1.302 -3.036,1.302 -4.226,1.302 -5.254,0.868 -6.123,0 -6.27,-0.148 -6.389,-0.308 -6.511,-0.468 H 0.404 C 0.277,-0.308 0.154,-0.148 0,0" style="fill:#0f4c4e;fill-opacity:1;fill-rule:nonzero;stroke:none" id="path270"></path></g><g id="g272" transform="translate(270.7614,157.3675)"><path d="m 0,0 v 0.387 h 4.965 v 1.132 h -1.32 l -4.766,4.765 0.497,0.498 4.56,-4.56 H 4.965 V 7.244 L 4.86,7.328 H 0 V 8.909 H -7.232 V 7.328 h -3.856 v -1.85 h 5.61 z" style="fill:#0f4c4e;fill-opacity:1;fill-rule:nonzero;stroke:none" id="path274"></path></g><g id="g276" transform="translate(272.6145,147.2324)"><path d="m 0,0 1.202,-1.202 h 1.91 v 1.118 C 1.785,-0.154 0.753,-0.124 0,0" style="fill:#0f4c4e;fill-opacity:1;fill-rule:nonzero;stroke:none" id="path278"></path></g><g id="g280" transform="translate(269.3432,140.6602)"><path d="M 0,0 C 0.294,-0.054 0.599,-0.101 0.919,-0.138 0.9,-0.09 0.87,-0.05 0.856,0 Z" style="fill:#0f4c4e;fill-opacity:1;fill-rule:nonzero;stroke:none" id="path282"></path></g><g id="g284" transform="translate(270.692,153.3425)"><path d="m 0,0 h 0.069 v 3.03 l -5.768,5.769 h -5.32 V 5.955 h 5.064 z" style="fill:#0f4c4e;fill-opacity:1;fill-rule:nonzero;stroke:none" id="path286"></path></g><g id="g288" transform="translate(263.7406,146.5603)"><path d="m 0,0 c 0.354,-2.107 1.163,-3.669 2.442,-4.667 0.264,-0.198 0.567,-0.371 0.891,-0.529 h 3.126 c 0.155,0.558 0.662,0.971 1.27,0.971 0.73,0 1.323,-0.593 1.323,-1.323 0,-0.223 -0.07,-0.424 -0.167,-0.608 0.952,0.008 1.984,0.069 3.101,0.187 v 2.356 H 3.613 Z" style="fill:#0f4c4e;fill-opacity:1;fill-rule:nonzero;stroke:none" id="path290"></path></g><g id="g292" transform="translate(265.1239,168.9306)"><path d="M 0,0 1.176,1.176 -1.594,0.345 V -1.951 H 5.638 V 2.515 L 2.598,1.603 0.498,-0.498 Z" style="fill:#0f4c4e;fill-opacity:1;fill-rule:nonzero;stroke:none" id="path294"></path></g><g id="g296" transform="translate(275.7269,143.6509)"><path d="m 0,0 v 1.676 h -2.202 l -9.471,9.471 h -0.524 V 5.57 c 0,-0.536 0.028,-1.038 0.069,-1.524 L -8.082,0 Z" style="fill:#0f4c4e;fill-opacity:1;fill-rule:nonzero;stroke:none" id="path298"></path></g><g id="g300" transform="translate(270.7779,149.0691)"><path d="M 0,0 C -0.003,0.053 -0.016,0.096 -0.016,0.152 V 3.57 h -0.361 l -5.956,5.955 h -4.771 v -0.84 h 3.856 V 6.432 h 0.816 z" style="fill:#0f4c4e;fill-opacity:1;fill-rule:nonzero;stroke:none" id="path302"></path></g><g id="g304" transform="translate(296.8428,162.8451)"><path d="m 0,0 h 2.184 c 0.155,0.559 0.662,0.971 1.269,0.971 0.731,0 1.324,-0.592 1.324,-1.323 0,-0.73 -0.593,-1.323 -1.324,-1.323 -0.607,0 -1.114,0.413 -1.269,0.971 h -17.029 c -0.162,-0.159 -0.327,-0.311 -0.485,-0.482 -0.598,-0.649 -1.11,-1.341 -1.549,-2.069 H 7.232 V 1.652 H 0 Z" style="fill:#0f4c4e;fill-opacity:1;fill-rule:nonzero;stroke:none" id="path306"></path></g><g id="g308" transform="translate(281.1185,153.3425)"><path d="M 0,0 C 0.155,0.559 0.662,0.971 1.27,0.971 2,0.971 2.593,0.379 2.593,-0.352 2.593,-1.082 2,-1.675 1.27,-1.675 0.662,-1.675 0.155,-1.262 0,-0.704 h -2.98 c 0,-0.352 0.02,-0.694 0.041,-1.035 h 7.271 c -0.044,0.335 -0.081,0.675 -0.081,1.04 0,1.41 0.338,2.586 0.989,3.542 H -2.557 C -2.781,1.942 -2.91,0.992 -2.952,0 Z" style="fill:#0f4c4e;fill-opacity:1;fill-rule:nonzero;stroke:none" id="path310"></path></g><g id="g312" transform="translate(278.7632,156.8897)"><path d="m 0,0 h 8.162 c 0.013,0.014 0.022,0.031 0.036,0.045 1.06,1.06 2.441,1.59 4.145,1.59 1.703,0 3.085,-0.53 4.147,-1.59 1.06,-1.061 1.59,-2.492 1.59,-4.291 0,-0.366 -0.037,-0.705 -0.081,-1.04 h 2.812 c 0.154,0.558 0.661,0.971 1.269,0.971 0.731,0 1.323,-0.593 1.323,-1.323 0,-0.731 -0.592,-1.323 -1.323,-1.323 -0.608,0 -1.114,0.412 -1.269,0.971 h -2.952 c -0.241,-0.999 -0.682,-1.859 -1.369,-2.547 -1.062,-1.06 -2.444,-1.591 -4.147,-1.591 -1.704,0 -3.085,0.531 -4.145,1.591 C 7.51,-7.849 7.069,-6.989 6.827,-5.99 H -0.52 c 0.196,-1.782 0.701,-3.404 1.512,-4.869 h 20.82 c 0.155,0.559 0.662,0.971 1.27,0.971 0.73,0 1.323,-0.592 1.323,-1.323 0,-0.731 -0.593,-1.323 -1.323,-1.323 -0.608,0 -1.115,0.413 -1.27,0.971 H 1.406 c 0.377,-0.585 0.802,-1.145 1.284,-1.676 h 6.268 c 0.155,0.559 0.662,0.971 1.27,0.971 0.73,0 1.323,-0.592 1.323,-1.323 0,-0.73 -0.593,-1.323 -1.323,-1.323 -0.608,0 -1.115,0.413 -1.27,0.971 H 3.387 c 2.121,-2.013 4.622,-3.03 7.51,-3.03 3.117,0 5.511,0.98 7.183,2.94 v -2.265 h 7.231 V 1.996 H 0.811 C 0.482,1.36 0.215,0.693 0,0" style="fill:#0f4c4e;fill-opacity:1;fill-rule:nonzero;stroke:none" id="path314"></path></g><g id="g316" transform="translate(289.6602,165.3707)"><path d="M 0,0 C -0.647,0 -1.27,-0.065 -1.88,-0.17 H 2.093 C 1.435,-0.059 0.739,0 0,0" style="fill:#0f4c4e;fill-opacity:1;fill-rule:nonzero;stroke:none" id="path318"></path></g><g id="g320" transform="translate(294.0826,164.4972)"><path d="m 0,0 h -8.682 c -0.927,-0.406 -1.801,-0.961 -2.627,-1.652 H 2.362 C 1.681,-0.958 0.894,-0.407 0,0" style="fill:#0f4c4e;fill-opacity:1;fill-rule:nonzero;stroke:none" id="path322"></path></g><g id="g324" transform="translate(316.6075,143.6509)"><path d="m 0,0 v 6.623 l -4.523,4.524 H -7.232 V 6.3 l 6.3,-6.3 z" style="fill:#0f4c4e;fill-opacity:1;fill-rule:nonzero;stroke:none" id="path326"></path></g><g id="g328" transform="translate(316.6075,151.2696)"><path d="m 0,0 v 3.192 l -4.132,4.132 h -3.1 V 4.232 h 3 z" style="fill:#0f4c4e;fill-opacity:1;fill-rule:nonzero;stroke:none" id="path330"></path></g><g id="g332" transform="translate(309.3758,175.7842)"><path d="M 0,0 V -0.926 L 0.926,0 Z" style="fill:#0f4c4e;fill-opacity:1;fill-rule:nonzero;stroke:none" id="path334"></path></g><g id="g336" transform="translate(316.6075,155.4571)"><path d="M 0,0 V 3.099 L -3.585,6.684 H -7.232 V 3.841 h 3.391 z" style="fill:#0f4c4e;fill-opacity:1;fill-rule:nonzero;stroke:none" id="path338"></path></g><g id="g340" transform="translate(311.2953,140.5915)"><path d="M 0,0 H 5.312 V 0.069 H 0.069 Z" style="fill:#0f4c4e;fill-opacity:1;fill-rule:nonzero;stroke:none" id="path342"></path></g><g id="g344" transform="translate(311.297,175.7842)"><path d="M 0,0 -1.921,-1.921 V -4.914 L 2.993,0 Z" style="fill:#0f4c4e;fill-opacity:1;fill-rule:nonzero;stroke:none" id="path346"></path></g><g id="g348" transform="translate(316.6075,171.3886)"><path d="M 0,0 -2.956,-2.956 -3.453,-2.458 0,0.995 v 3.401 h -1.322 l -5.91,-5.91 V -4.409 H 0 Z" style="fill:#0f4c4e;fill-opacity:1;fill-rule:nonzero;stroke:none" id="path350"></path></g><g id="g352" transform="translate(316.6075,159.5515)"><path d="M 0,0 V 6.725 H -7.232 V 3.294 h 3.939 z" style="fill:#0f4c4e;fill-opacity:1;fill-rule:nonzero;stroke:none" id="path354"></path></g><g id="g356" transform="translate(309.3758,148.9551)"><path d="m 0,0 v -8.364 h 0.924 l 0.773,0.773 h 5.535 v 1.583 H 6.008 Z" style="fill:#0f4c4e;fill-opacity:1;fill-rule:nonzero;stroke:none" id="path358"></path></g><path d="m 337.578,159.59 h 7.714 v 2.551 h -7.714 z" style="fill:#0f4c4e;fill-opacity:1;fill-rule:nonzero;stroke:none" id="path360"></path><g id="g362" transform="translate(353.9688,169.9418)"><path d="M 0,0 V 2.727 L -2.727,0 Z" style="fill:#0f4c4e;fill-opacity:1;fill-rule:nonzero;stroke:none" id="path364"></path></g><path d="m 337.578,146.031 h 7.714 v 4.869 h -7.714 z" style="fill:#0f4c4e;fill-opacity:1;fill-rule:nonzero;stroke:none" id="path366"></path><g id="g368" transform="translate(353.9688,173.7253)"><path d="M 0,0 V 0.612 H -2.319 L -2.931,0 Z" style="fill:#0f4c4e;fill-opacity:1;fill-rule:nonzero;stroke:none" id="path370"></path></g><g id="g372" transform="translate(337.5784,144.4894)"><path d="M 0,0 C 0.45,-0.211 0.766,-0.661 0.766,-1.191 0.766,-1.72 0.45,-2.17 0,-2.381 V -3.898 H 7.714 V 0.837 H 0 Z" style="fill:#0f4c4e;fill-opacity:1;fill-rule:nonzero;stroke:none" id="path374"></path></g><g id="g376" transform="translate(337.5784,156.8897)"><path d="m 0,0 h 0.693 c 0.155,0.559 0.662,0.971 1.27,0.971 0.73,0 1.323,-0.592 1.323,-1.323 0,-0.73 -0.593,-1.323 -1.323,-1.323 -0.608,0 -1.115,0.413 -1.27,0.971 H 0 V -5.286 H 7.714 V 1.996 H 0 Z" style="fill:#0f4c4e;fill-opacity:1;fill-rule:nonzero;stroke:none" id="path378"></path></g><g id="g380" transform="translate(328.9006,173.7253)"><path d="m 0,0 h 21.141 l 0.612,0.612 H 0 Z" style="fill:#0f4c4e;fill-opacity:1;fill-rule:nonzero;stroke:none" id="path382"></path></g><g id="g384" transform="translate(353.9688,166.9801)"><path d="m 0,0 v 2.258 h -3.43 -2.504 -16.293 v 0.704 h 16.293 v 0 h 2.212 l 3.08,3.079 H -3.635 L -4.603,5.073 h -1.331 v 0.704 h 1.039 l 0.264,0.264 h -20.437 v -6.108 h 8.678 v -1.712 h 7.713 v 1.712 h 2.743 V 0 Z" style="fill:#0f4c4e;fill-opacity:1;fill-rule:nonzero;stroke:none" id="path386"></path></g><path d="m 337.578,162.845 h 7.714 v 1.652 h -7.714 z" style="fill:#0f4c4e;fill-opacity:1;fill-rule:nonzero;stroke:none" id="path388"></path><g id="g390" transform="translate(374.5143,162.8451)"><path d="M 0,0 -0.481,1.652 H -3.543 L -3.742,1.851 H -7.288 L -7.41,1.433 -5.611,0 Z" style="fill:#0f4c4e;fill-opacity:1;fill-rule:nonzero;stroke:none" id="path392"></path></g><g id="g394" transform="translate(361.0685,156.8897)"><path d="m 0,0 h 1.024 l -1.521,5.66 -1.102,1.102 0.498,0.498 0.239,-0.239 -0.211,0.785 h -7.714 l 0.592,-1.851 h 2.24 z" style="fill:#0f4c4e;fill-opacity:1;fill-rule:nonzero;stroke:none" id="path396"></path></g><g id="g398" transform="translate(359.7481,141.364)"><path d="m 0,0 h 0.281 c 0.154,0.559 0.661,0.971 1.269,0.971 0.731,0 1.323,-0.592 1.323,-1.323 0,-0.149 -0.039,-0.287 -0.085,-0.42 h 4.208 l 0.706,2.355 h -8.209 z" style="fill:#0f4c4e;fill-opacity:1;fill-rule:nonzero;stroke:none" id="path400"></path></g><g id="g402" transform="translate(368.1631,145.3269)"><path d="m 0,0 h -4.809 l -7.168,7.168 2.83,-8.844 h 8.645 z" style="fill:#0f4c4e;fill-opacity:1;fill-rule:nonzero;stroke:none" id="path404"></path></g><g id="g406" transform="translate(374.7191,162.1412)"><path d="M 0,0 H -6.062 L -7.827,1.406 -8.979,-2.551 H 0.743 Z" style="fill:#0f4c4e;fill-opacity:1;fill-rule:nonzero;stroke:none" id="path408"></path></g><g id="g410" transform="translate(373.5411,143.6509)"><path d="m 0,0 h 4.01 c 0.154,0.559 0.661,0.971 1.269,0.971 0.731,0 1.323,-0.592 1.323,-1.323 0,-0.731 -0.592,-1.323 -1.323,-1.323 -0.608,0 -1.115,0.413 -1.27,0.971 H 0.211 l 0.706,-2.355 h 6.749 l 1.515,4.735 h -9.683 z" style="fill:#0f4c4e;fill-opacity:1;fill-rule:nonzero;stroke:none" id="path412"></path></g><g id="g414" transform="translate(380.7101,162.8451)"><path d="M 0,0 H 7.618 L 8.146,1.652 H 0.444 Z" style="fill:#0f4c4e;fill-opacity:1;fill-rule:nonzero;stroke:none" id="path416"></path></g><g id="g418" transform="translate(379.11,156.8897)"><path d="m 0,0 h 0.96 c 0.155,0.559 0.662,0.971 1.27,0.971 0.731,0 1.323,-0.592 1.323,-1.323 0,-0.73 -0.592,-1.323 -1.323,-1.323 -0.608,0 -1.115,0.413 -1.27,0.971 h -1.149 l -1.185,-4.41 -1.284,4.41 h -11.703 l -0.827,-2.843 h 6.643 l 0.036,0.12 0.037,-0.12 h 0.31 c 0.155,0.558 0.662,0.971 1.27,0.971 0.73,0 1.323,-0.592 1.323,-1.323 0,-0.731 -0.593,-1.323 -1.323,-1.323 -0.608,0 -1.115,0.412 -1.27,0.971 h -0.1 l 0.311,-1.035 H 5.621 l 2.33,7.282 H 0.536 Z" style="fill:#0f4c4e;fill-opacity:1;fill-rule:nonzero;stroke:none" id="path420"></path></g><g id="g422" transform="translate(372.8281,146.0307)"><path d="m 0,0 h 10.12 l 1.557,4.869 H -1.459 Z" style="fill:#0f4c4e;fill-opacity:1;fill-rule:nonzero;stroke:none" id="path424"></path></g><g id="g426" transform="translate(360.5212,153.3425)"><path d="M 0,0 H 2.524 L 1.76,2.843 H 0.256 l -5.955,5.956 h -1.723 l 0.91,-2.844 h 0.557 z" style="fill:#0f4c4e;fill-opacity:1;fill-rule:nonzero;stroke:none" id="path428"></path></g><g id="g430" transform="translate(376.2476,156.8897)"><path d="M 0,0 -0.581,1.996 H -10.713 L -11.294,0 Z" style="fill:#0f4c4e;fill-opacity:1;fill-rule:nonzero;stroke:none" id="path432"></path></g><g id="g434" transform="translate(380.521,162.1412)"><path d="M 0,0 -0.686,-2.551 H 6.765 L 7.582,0 Z" style="fill:#0f4c4e;fill-opacity:1;fill-rule:nonzero;stroke:none" id="path436"></path></g><g id="g438" transform="translate(359.9734,140.6602)"><path d="M 0,0 0.022,-0.069 H 0.087 C 0.079,-0.045 0.062,-0.025 0.055,0 Z" style="fill:#0f4c4e;fill-opacity:1;fill-rule:nonzero;stroke:none" id="path440"></path></g><g id="g442" transform="translate(368.3739,146.0307)"><path d="M 0,0 1.459,4.869 H -3.905 V 5.573 H 1.67 L 1.98,6.608 H -4.657 L -4.908,5.745 -5.14,6.608 h -3.004 l -5.955,5.955 H -14.14 L -12.656,7.928 -4.728,0 Z" style="fill:#0f4c4e;fill-opacity:1;fill-rule:nonzero;stroke:none" id="path444"></path></g><g id="g446" transform="translate(391.8121,149.1464)"><path d="m 0,0 v -8.555 h 1.116 l 0.772,0.773 h 5.344 v 1.583 H 6.2 Z" style="fill:#0f4c4e;fill-opacity:1;fill-rule:nonzero;stroke:none" id="path448"></path></g><g id="g450" transform="translate(395.4285,175.4946)"><path d="m 0,0 c -1.19,0 -2.218,-0.434 -3.086,-1.302 -0.835,-0.836 -1.253,-1.848 -1.253,-3.037 0,-0.372 0.055,-0.722 0.137,-1.063 l 5.259,5.259 C 0.72,-0.058 0.372,0 0,0" style="fill:#0f4c4e;fill-opacity:1;fill-rule:nonzero;stroke:none" id="path452"></path></g><g id="g454" transform="translate(392.3421,168.0705)"><path d="m 0,0 c 0.573,-0.552 1.222,-0.903 1.934,-1.09 h 2.297 c 0.704,0.187 1.34,0.538 1.892,1.09 0.868,0.868 1.302,1.896 1.302,3.085 0,0.242 -0.031,0.472 -0.067,0.699 L 3.937,0.363 3.44,0.86 7.15,4.571 C 6.935,5.14 6.602,5.661 6.123,6.122 5.745,6.514 5.326,6.805 4.877,7.02 L -0.864,1.279 C -0.657,0.821 -0.377,0.392 0,0" style="fill:#0f4c4e;fill-opacity:1;fill-rule:nonzero;stroke:none" id="path456"></path></g><g id="g458" transform="translate(393.9229,140.5915)"><path d="M 0,0 H 5.121 V 0.069 H 0.069 Z" style="fill:#0f4c4e;fill-opacity:1;fill-rule:nonzero;stroke:none" id="path460"></path></g><g id="g462" transform="translate(399.0438,143.6509)"><path d="m 0,0 v 6.815 l -4.332,4.332 h -2.9 V 6.491 L -0.741,0 Z" style="fill:#0f4c4e;fill-opacity:1;fill-rule:nonzero;stroke:none" id="path464"></path></g><g id="g466" transform="translate(399.0438,159.7428)"><path d="M 0,0 V 4.953 H -7.232 V 3.102 h 4.13 z" style="fill:#0f4c4e;fill-opacity:1;fill-rule:nonzero;stroke:none" id="path468"></path></g><g id="g470" transform="translate(399.0438,151.4609)"><path d="M 0,0 V 3.192 L -3.941,7.133 H -7.232 V 4.041 h 3.191 z" style="fill:#0f4c4e;fill-opacity:1;fill-rule:nonzero;stroke:none" id="path472"></path></g><g id="g474" transform="translate(395.6503,162.1412)"><path d="m 0,0 h -3.838 v -2.843 h 3.582 l 3.65,-3.65 v 3.099 z" style="fill:#0f4c4e;fill-opacity:1;fill-rule:nonzero;stroke:none" id="path476"></path></g><path d="m 404.346,140.592 h 7.232 v 2.356 h -7.232 z" style="fill:#0f4c4e;fill-opacity:1;fill-rule:nonzero;stroke:none" id="path478"></path><g id="g480" transform="translate(411.5779,153.3425)"><path d="m 0,0 v 0.41 c 0,0.948 0.154,1.748 0.428,2.433 h -7.66 V 0 Z" style="fill:#0f4c4e;fill-opacity:1;fill-rule:nonzero;stroke:none" id="path482"></path></g><g id="g484" transform="translate(420.2557,144.4559)"><path d="M 0,0 C 0.42,-0.222 0.716,-0.649 0.716,-1.157 0.716,-1.665 0.42,-2.092 0,-2.314 v -1.55 H 7.23 V 0.871 H 0 Z" style="fill:#0f4c4e;fill-opacity:1;fill-rule:nonzero;stroke:none" id="path486"></path></g><g id="g488" transform="translate(422.4671,164.4972)"><path d="m 0,0 h -8.356 c -0.853,-0.407 -1.58,-0.958 -2.182,-1.652 H 2.285 C 1.6,-0.956 0.837,-0.408 0,0" style="fill:#0f4c4e;fill-opacity:1;fill-rule:nonzero;stroke:none" id="path490"></path></g><g id="g492" transform="translate(418.4715,165.3707)"><path d="M 0,0 C -0.747,0 -1.443,-0.059 -2.094,-0.17 H 1.882 C 1.284,-0.057 0.657,0 0,0" style="fill:#0f4c4e;fill-opacity:1;fill-rule:nonzero;stroke:none" id="path494"></path></g><g id="g496" transform="translate(404.3463,146.1585)"><path d="M 0,0 0.128,-0.128 H 7.232 V 4.741 H 0.951 V 5.445 H 7.232 V 6.48 H 0 Z" style="fill:#0f4c4e;fill-opacity:1;fill-rule:nonzero;stroke:none" id="path498"></path></g><g id="g500" transform="translate(406.2788,164.6956)"><path d="m 0,0 h -1.933 v -4.097 l 1.009,-1.009 h 21.459 c -0.343,0.949 -0.822,1.798 -1.43,2.552 H 3.207 Z" style="fill:#0f4c4e;fill-opacity:1;fill-rule:nonzero;stroke:none" id="path502"></path></g><path d="m 420.256,146.031 h 7.23 v 4.869 h -7.23 z" style="fill:#0f4c4e;fill-opacity:1;fill-rule:nonzero;stroke:none" id="path504"></path><g id="g506" transform="translate(404.3463,159.6036)"><path d="m 0,0 v -2.714 h 8.012 c 0.123,0.194 0.248,0.386 0.401,0.551 0.787,0.851 1.887,1.278 3.302,1.278 1.253,0 2.266,-0.386 3.037,-1.158 0.202,-0.202 0.374,-0.427 0.524,-0.671 h 1.277 c 0.154,0.559 0.661,0.971 1.269,0.971 0.731,0 1.323,-0.592 1.323,-1.323 0,-0.73 -0.592,-1.323 -1.323,-1.323 -0.608,0 -1.114,0.413 -1.269,0.971 h -0.938 c 0.195,-0.541 0.294,-1.159 0.294,-1.854 V -8 h 7.231 v 3.788 c 0,1.277 -0.157,2.438 -0.455,3.494 H 0.718 Z" style="fill:#0f4c4e;fill-opacity:1;fill-rule:nonzero;stroke:none" id="path508"></path></g><path d="m 404.346,143.651 h 7.232 v 1.676 h -7.232 z" style="fill:#0f4c4e;fill-opacity:1;fill-rule:nonzero;stroke:none" id="path510"></path><g id="g512" transform="translate(411.5779,162.8451)"><path d="M 0,0 V 1.851 H -4.17 L -1.846,0 Z" style="fill:#0f4c4e;fill-opacity:1;fill-rule:nonzero;stroke:none" id="path514"></path></g></g></g></g><g id="g518" inkscape:groupmode="layer" inkscape:label="Page 2" transform="matrix(1.3333333,0,0,-1.3333333,820,533.33333)" style="display:inline"><path d="M 0,0 H 600 V 400 H 0 Z" style="fill:#0f4c4e;fill-opacity:1;fill-rule:nonzero;stroke:none" id="path520"></path><g id="g522" transform="translate(336.1643,274.4693)"><path d="m 0,0 h 13.841 l 1.16,1.16 V 13.349 H 10.578 V 10.09 Z" style="fill:#23c6c5;fill-opacity:1;fill-rule:nonzero;stroke:none" id="path524"></path></g><g id="g526" transform="translate(281.2674,274.4693)"><path d="M 0,0 H 9.965 V 13.349 H 6.559 v -6.79 z" style="fill:#23c6c5;fill-opacity:1;fill-rule:nonzero;stroke:none" id="path528"></path></g><g id="g530"><g id="g532" clip-path="url(#clipPath536)"><g id="g538" transform="translate(257.395,276.7351)"><path d="M 0,0 V 11.084 H -4.069 V 9.662 c 0.842,-0.234 1.465,-0.998 1.465,-1.915 0,-1.102 -0.894,-1.996 -1.996,-1.996 -1.102,0 -1.996,0.894 -1.996,1.996 0,0.917 0.623,1.682 1.465,1.915 v 1.422 H -8.846 V 0.386 l -2.909,-2.063 c 0.425,-0.76 0.346,-1.725 -0.3,-2.371 -0.092,-0.093 -0.209,-0.138 -0.313,-0.209 l 6.419,-11.114 v 9.422 z" style="fill:#23c6c5;fill-opacity:1;fill-rule:nonzero;stroke:none" id="path540"></path></g><g id="g542" transform="translate(244.8894,275.8083)"><path d="M 0,0 2.598,1.752 V 12.01 H -8.722 L -1.832,0.081 C -1.253,0.354 -0.569,0.319 0,0" style="fill:#23c6c5;fill-opacity:1;fill-rule:nonzero;stroke:none" id="path544"></path></g><g id="g546" transform="translate(275.2518,274.4693)"><path d="m 0,0 h 4.514 l 6.999,6.999 v 6.35 H 8.328 V 8.328 Z" style="fill:#23c6c5;fill-opacity:1;fill-rule:nonzero;stroke:none" id="path548"></path></g><g id="g550" transform="translate(324.0172,274.4693)"><path d="m 0,0 h 5.851 v 3.04 l 10.31,10.309 h -4.78 L 6.982,8.951 C 7.408,8.191 7.329,7.226 6.683,6.58 5.904,5.8 4.64,5.8 3.861,6.58 c -0.78,0.779 -0.78,2.043 0,2.822 0.646,0.646 1.611,0.725 2.371,0.299 L 9.88,13.349 H 0.443 c 0.191,-0.303 0.32,-0.65 0.32,-1.036 0,-1.102 -0.894,-1.996 -1.996,-1.996 -1.102,0 -1.995,0.894 -1.995,1.996 0,0.386 0.129,0.733 0.319,1.036 h -7.805 v -2.635 z" style="fill:#23c6c5;fill-opacity:1;fill-rule:nonzero;stroke:none" id="path552"></path></g><g id="g554" transform="translate(330.9297,274.4693)"><path d="m 0,0 h 3.696 l 11.055,10.545 v 2.804 H 10.749 L 0,2.6 Z" style="fill:#23c6c5;fill-opacity:1;fill-rule:nonzero;stroke:none" id="path556"></path></g><g id="g558" transform="translate(360.996,278.8347)"><path d="m 0,0 c 0,-1.228 -0.995,-2.223 -2.223,-2.223 -0.426,0 -0.821,0.127 -1.159,0.335 l -2.477,-2.477 h 4.1 L 5.959,8.984 H -1.692 V 2.152 C -0.722,1.913 0,1.044 0,0" style="fill:#23c6c5;fill-opacity:1;fill-rule:nonzero;stroke:none" id="path560"></path></g><g id="g562" transform="translate(308.2466,271.0271)"><path d="M 0,0 V 3.442 H 1.373 L 0.298,4.516 V 16.792 H -4.366 V 4.366 Z" style="fill:#23c6c5;fill-opacity:1;fill-rule:nonzero;stroke:none" id="path564"></path></g><g id="g566" transform="translate(259.2987,274.4693)"><path d="m 0,0 h 14.452 l 8.768,8.768 v 4.581 H 8.775 l 3.084,-3.084 c 0.76,0.426 1.725,0.347 2.371,-0.299 0.779,-0.779 0.779,-2.043 0,-2.822 -0.779,-0.779 -2.043,-0.779 -2.822,0 -0.647,0.646 -0.725,1.611 -0.3,2.371 L 7.273,13.349 H -0.842 V 1.826 l -5.949,-5.949 v -10.82 l 4.887,-8.462 v 18.86 h 1.062 V -25.243 L 5.925,-36.96 v 26.7 z" style="fill:#23c6c5;fill-opacity:1;fill-rule:nonzero;stroke:none" id="path568"></path></g><g id="g570" transform="translate(311.1202,274.4693)"><path d="M 0,0 H 11.396 L 1.122,10.274 v 3.075 H -1.514 V 1.514 Z" style="fill:#23c6c5;fill-opacity:1;fill-rule:nonzero;stroke:none" id="path572"></path></g><g id="g574" transform="translate(356.5508,278.8347)"><path d="M 0,0 C 0,1.044 0.722,1.913 1.692,2.152 V 8.984 H -4.324 V -3.645 l -0.72,-0.72 h 2.129 l 3.234,3.234 C 0.121,-0.799 0,-0.415 0,0" style="fill:#23c6c5;fill-opacity:1;fill-rule:nonzero;stroke:none" id="path576"></path></g><g id="g578" transform="translate(335.037,243.1297)"><path d="m 0,0 -0.067,-10.263 c 0.073,-0.022 0.131,-0.069 0.2,-0.099 l 4.938,8.569 V 0 Z" style="fill:#23c6c5;fill-opacity:1;fill-rule:nonzero;stroke:none" id="path580"></path></g><g id="g582" transform="translate(302.9108,194.3145)"><path d="m 0,0 c -1.1,0 -2,0.89 -2,1.99 0,0.92 0.63,1.69 1.47,1.92 v 61.71 l -6.88,6.87 0.75,0.75 7.19,-7.19 V 3.91 C 1.37,3.68 1.99,2.91 1.99,1.99 1.99,0.89 1.1,0 0,0 m 5.34,48.82 v 26.39 l -5.43,5.43 V 93.5 H -4.38 V 80.25 L 4.6,71.27 v -29.1 c 0.84,-0.23 1.47,-1 1.47,-1.91 0,-1.11 -0.9,-2 -2,-2 -1.1,0 -1.99,0.89 -1.99,2 0,0.91 0.62,1.68 1.46,1.91 v 28.66 l -8.98,8.98 V 93.5 h -5.18 V 80.15 h 2.61 v -16.2 l 3.63,-4.56 V -0.19 c 0.84,-0.23 1.46,-0.99 1.46,-1.91 0,-1.1 -0.89,-2 -1.99,-2 -1.1,0 -2,0.9 -2,2 0,0.92 0.63,1.68 1.47,1.91 v 59.2 l -2.57,3.23 V 55.97 L -7.93,55.9 V 10.57 c 0.84,-0.23 1.46,-1 1.46,-1.91 0,-1.11 -0.89,-2 -1.99,-2 -1.11,0 -2,0.89 -2,2 0,0.91 0.62,1.68 1.46,1.91 v 9.65 l -6.08,10.54 V 13.92 c 0.84,-0.24 1.46,-1 1.46,-1.92 0,-1.1 -0.89,-1.99 -2,-1.99 -1.1,0 -1.99,0.89 -1.99,1.99 0,0.92 0.62,1.68 1.46,1.92 V 32.6 l -4.64,8.04 V 26.96 c 0.84,-0.23 1.46,-0.99 1.46,-1.91 0,-1.1 -0.89,-2 -1.99,-2 -1.1,0 -2,0.9 -2,2 0,0.92 0.62,1.68 1.47,1.91 v 15.52 l -5.18,8.96 v -5.36 c 0.85,-0.23 1.47,-1 1.47,-1.91 0,-1.11 -0.9,-2 -2,-2 -1.1,0 -1.99,0.89 -1.99,2 0,0.91 0.62,1.68 1.46,1.91 v 7.2 l -4.15,7.18 V 49.62 c 0.85,-0.23 1.47,-1 1.47,-1.91 0,-1.11 -0.9,-2 -2,-2 -1.1,0 -1.99,0.89 -1.99,2 0,0.91 0.62,1.68 1.46,1.91 V 62.3 l -3.33,5.76 V 41.36 L -8.01,-8.19 H 5.34 v 43.66 h 4.71 v 0.01 c 0,0.92 0.62,1.68 1.46,1.92 v 11.42 z" style="fill:#23c6c5;fill-opacity:1;fill-rule:nonzero;stroke:none" id="path584"></path></g><g id="g586" transform="translate(333.9089,232.8979)"><path d="M 0,0 0.069,10.232 H -6.428 V 7.389 c 0.842,-0.234 1.464,-0.999 1.464,-1.916 0,-1.102 -0.893,-1.995 -1.995,-1.995 -1.102,0 -1.996,0.893 -1.996,1.995 0,0.917 0.622,1.682 1.465,1.915 v 2.844 h -2.528 V 2.21 c 0.843,-0.234 1.465,-0.998 1.465,-1.915 0,-1.102 -0.894,-1.996 -1.996,-1.996 -1.102,0 -1.995,0.894 -1.995,1.996 0,0.917 0.622,1.681 1.465,1.915 v 8.022 h -7.344 V -1.187 c 0.842,-0.234 1.464,-0.998 1.464,-1.915 0,-0.006 -0.001,-0.01 -0.001,-0.016 H -1.118 C -1.378,-2.769 -1.534,-2.34 -1.52,-1.872 -1.493,-0.955 -0.849,-0.209 0,0" style="fill:#23c6c5;fill-opacity:1;fill-rule:nonzero;stroke:none" id="path588"></path></g><g id="g590" transform="translate(257.6029,135.5692)"><path d="m 0,0 v -2.605 h -4.483 v -2.284 h 4.398 v -2.605 h -4.398 v -4.348 H -7.19 V 0 Z" style="fill:#23c6c5;fill-opacity:1;fill-rule:nonzero;stroke:none" id="path592"></path></g><g id="g594" transform="translate(281.0319,132.4736)"><path d="M 0,0 -1.387,-4.348 H 1.387 Z M 5.752,-8.746 H 2.791 l -0.592,1.861 h -4.398 l -0.592,-1.861 h -2.961 l 4.027,11.842 h 3.45 z" style="fill:#23c6c5;fill-opacity:1;fill-rule:nonzero;stroke:none" id="path596"></path></g><g id="g598" transform="translate(310.6192,123.4909)"><path d="m 0,0 c -1.771,0 -3.243,0.586 -4.415,1.759 -1.162,1.173 -1.743,2.639 -1.743,4.398 0,1.759 0.581,3.22 1.743,4.382 1.161,1.184 2.633,1.776 4.415,1.776 1.06,0 2.041,-0.246 2.944,-0.736 C 3.845,11.088 4.556,10.42 5.075,9.574 L 2.74,8.221 C 2.48,8.683 2.112,9.042 1.633,9.296 1.153,9.549 0.609,9.676 0,9.676 c -1.061,0 -1.901,-0.321 -2.521,-0.964 -0.62,-0.632 -0.93,-1.484 -0.93,-2.555 0,-1.072 0.31,-1.922 0.93,-2.554 0.62,-0.643 1.46,-0.965 2.521,-0.965 0.598,0 1.142,0.13 1.633,0.39 0.49,0.259 0.859,0.614 1.107,1.065 L 5.075,2.74 C 4.567,1.895 3.863,1.226 2.96,0.736 2.058,0.245 1.071,0 0,0" style="fill:#23c6c5;fill-opacity:1;fill-rule:nonzero;stroke:none" id="path600"></path></g><g id="g602" transform="translate(333.7091,135.5692)"><path d="M 0,0 H 8.797 V -2.605 H 5.752 v -9.237 H 3.046 v 9.237 H 0 Z" style="fill:#23c6c5;fill-opacity:1;fill-rule:nonzero;stroke:none" id="path604"></path></g><g id="g606" transform="translate(362.8069,129.6478)"><path d="m 0,0 c 0,-1.037 0.327,-1.883 0.981,-2.537 0.654,-0.655 1.477,-0.981 2.47,-0.981 0.981,0 1.798,0.326 2.453,0.981 C 6.569,-1.872 6.902,-1.026 6.902,0 6.902,1.026 6.569,1.872 5.904,2.538 5.249,3.192 4.432,3.519 3.451,3.519 2.458,3.519 1.635,3.192 0.981,2.538 0.327,1.884 0,1.038 0,0 M 7.815,-4.381 C 6.62,-5.565 5.165,-6.157 3.451,-6.157 c -1.714,0 -3.169,0.592 -4.364,1.776 -1.197,1.184 -1.794,2.644 -1.794,4.381 0,1.737 0.597,3.198 1.794,4.382 1.195,1.184 2.65,1.776 4.364,1.776 1.714,0 3.169,-0.592 4.364,-1.776 C 9.01,3.198 9.609,1.737 9.609,0 9.609,-1.737 9.01,-3.197 7.815,-4.381" style="fill:#23c6c5;fill-opacity:1;fill-rule:nonzero;stroke:none" id="path608"></path></g><g id="g610" transform="translate(396.2668,133.0318)"><path d="M 0,0 H -2.03 V -3.046 H 0 c 0.372,0 0.691,0.147 0.956,0.44 0.265,0.293 0.397,0.654 0.397,1.083 0,0.429 -0.132,0.789 -0.397,1.082 C 0.691,-0.147 0.372,0 0,0 M 4.399,-9.304 H 1.488 l -2.233,3.89 H -2.03 v -3.89 H -4.737 V 2.537 H 0 c 1.127,0 2.086,-0.395 2.876,-1.184 0.789,-0.79 1.184,-1.748 1.184,-2.876 0,-0.71 -0.2,-1.376 -0.6,-1.996 C 3.059,-4.14 2.531,-4.618 1.878,-4.957 Z" style="fill:#23c6c5;fill-opacity:1;fill-rule:nonzero;stroke:none" id="path612"></path></g><g id="g614" transform="translate(425.7521,135.5692)"><path d="m 0,0 h 3.079 l -3.976,-7.291 v -4.551 h -2.706 v 4.551 L -7.579,0 H -4.5 l 2.25,-4.567 z" style="fill:#23c6c5;fill-opacity:1;fill-rule:nonzero;stroke:none" id="path616"></path></g><g id="g618" transform="translate(185.8157,171.8204)"><path d="m 0,0 h -11.957 v -3.431 h 3.604 l 4.11,-4.11 v 2.634 h 2.529 l -2.283,2.283 0.498,0.497 2.78,-2.78 h 2.261 c 2.199,0 4.043,-0.6 5.543,-1.779 h 9.167 C 15.82,-5.795 15.3,-4.946 14.7,-4.135 H 5.191 Z" style="fill:#ffffff;fill-opacity:1;fill-rule:nonzero;stroke:none" id="path620"></path></g><g id="g622" transform="translate(191.2524,168.3893)"><path d="M 0,0 H 8.725 C 8.423,0.367 8.111,0.73 7.771,1.079 7.574,1.283 7.365,1.461 7.161,1.652 H 2.068 l -3.936,3.936 0.21,0.209 c -0.728,0.09 -1.468,0.151 -2.237,0.151 h -9.197 l -0.36,-0.36 -0.361,0.36 h -3.581 V 4.135 h 12.203 z" style="fill:#ffffff;fill-opacity:1;fill-rule:nonzero;stroke:none" id="path624"></path></g><g id="g626" transform="translate(193.8174,150.5709)"><path d="m 0,0 c -0.542,-0.563 -1.161,-0.999 -1.816,-1.376 h 7.899 c 0.155,0.559 0.661,0.971 1.269,0.971 0.357,0 0.678,-0.144 0.915,-0.374 0.171,0.356 0.342,0.711 0.486,1.079 H 0.237 C 0.152,0.205 0.09,0.092 0,0" style="fill:#ffffff;fill-opacity:1;fill-rule:nonzero;stroke:none" id="path628"></path></g><g id="g630" transform="translate(199.9,148.4912)"><path d="m 0,0 h -9.509 c -0.93,-0.293 -1.926,-0.476 -3.033,-0.476 h -5.786 V 0 h -2.039 l -5.674,5.674 v -8.62 l 1.362,1.363 h 7.157 c 0.155,0.559 0.662,0.971 1.27,0.971 0.73,0 1.323,-0.592 1.323,-1.323 0,-0.731 -0.593,-1.323 -1.323,-1.323 -0.608,0 -1.115,0.412 -1.27,0.971 h -6.865 l -1.654,-1.654 V -7.9 h 0.361 l 3.294,3.453 20.172,0.137 c 0.46,0.382 0.908,0.788 1.338,1.231 0.666,0.687 1.246,1.415 1.771,2.171 C 0.462,-0.778 0.121,-0.438 0,0" style="fill:#ffffff;fill-opacity:1;fill-rule:nonzero;stroke:none" id="path632"></path></g><g id="g634" transform="translate(175.1931,140.5915)"><path d="m 0,0 h 12.165 c 3.595,0 6.727,0.968 9.405,2.882 L 2.631,2.758 Z" style="fill:#ffffff;fill-opacity:1;fill-rule:nonzero;stroke:none" id="path636"></path></g><g id="g638" transform="translate(197.6319,170.7451)"><path d="M 0,0 C -2.152,1.783 -4.609,2.896 -7.367,3.348 L -4.02,0 Z" style="fill:#ffffff;fill-opacity:1;fill-rule:nonzero;stroke:none" id="path640"></path></g><g id="g642" transform="translate(195.1637,162.4339)"><path d="M 0,0 H 7.256 C 7.332,0.275 7.495,0.512 7.711,0.684 7.566,1.13 7.405,1.568 7.223,1.996 H -1.472 C -1.431,1.955 -1.387,1.919 -1.346,1.876 -0.795,1.325 -0.369,0.684 0,0" style="fill:#ffffff;fill-opacity:1;fill-rule:nonzero;stroke:none" id="path644"></path></g><g id="g646" transform="translate(181.5724,155.9975)"><path d="M 0,0 V 3.192 L -4.948,8.141 H -7.714 V 5.048 h 2.666 z" style="fill:#ffffff;fill-opacity:1;fill-rule:nonzero;stroke:none" id="path648"></path></g><g id="g650" transform="translate(196.3006,157.1476)"><path d="M 0,0 H 7.434 C 7.436,0.107 7.448,0.209 7.448,0.317 7.448,1.473 7.351,2.582 7.165,3.649 6.662,3.738 6.254,4.096 6.119,4.582 H -0.792 C -0.267,3.345 0.024,1.937 0.024,0.317 0.024,0.205 0.003,0.11 0,0" style="fill:#ffffff;fill-opacity:1;fill-rule:nonzero;stroke:none" id="path652"></path></g><g id="g654" transform="translate(181.5724,160.185)"><path d="M 0,0 V 3.099 L -4.401,7.5 H -7.714 V 4.657 h 3.057 z" style="fill:#ffffff;fill-opacity:1;fill-rule:nonzero;stroke:none" id="path656"></path></g><g id="g658" transform="translate(196.247,156.4438)"><path d="M 0,0 C -0.144,-1.909 -0.685,-3.535 -1.637,-4.869 H 6.56 C 7.074,-3.351 7.374,-1.728 7.458,0 Z" style="fill:#ffffff;fill-opacity:1;fill-rule:nonzero;stroke:none" id="path660"></path></g><g id="g662" transform="translate(181.5724,149.1951)"><path d="m 0,0 v 5.807 l -5.34,5.34 H -7.714 V 5.965 L -1.748,0 Z" style="fill:#ffffff;fill-opacity:1;fill-rule:nonzero;stroke:none" id="path664"></path></g><g id="g666" transform="translate(208.1191,168.3893)"><path d="m 0,0 h 3.086 c 0.155,0.559 0.662,0.971 1.27,0.971 0.731,0 1.323,-0.592 1.323,-1.323 0,-0.236 -0.078,-0.446 -0.187,-0.638 0.312,0.184 0.613,0.397 0.887,0.671 0.583,0.583 0.952,1.244 1.144,1.971 H -0.844 C -0.692,1.052 -0.408,0.502 0,0" style="fill:#ffffff;fill-opacity:1;fill-rule:nonzero;stroke:none" id="path668"></path></g><g id="g670" transform="translate(211.4621,175.4946)"><path d="M 0,0 C -0.031,0 -0.06,-0.008 -0.091,-0.009 H 0.09 C 0.059,-0.008 0.031,0 0,0" style="fill:#ffffff;fill-opacity:1;fill-rule:nonzero;stroke:none" id="path672"></path></g><g id="g674" transform="translate(215.8004,171.1558)"><path d="M 0,0 C 0,1.188 -0.434,2.201 -1.302,3.037 -1.521,3.265 -1.754,3.459 -1.998,3.626 H -6.707 C -6.957,3.459 -7.197,3.265 -7.425,3.037 -8.26,2.201 -8.678,1.188 -8.678,0 c 0,-0.142 0.026,-0.274 0.038,-0.411 h 8.601 C -0.026,-0.274 0,-0.142 0,0" style="fill:#ffffff;fill-opacity:1;fill-rule:nonzero;stroke:none" id="path676"></path></g><g id="g678" transform="translate(211.2054,167.6854)"><path d="m 0,0 h -2.352 c 0.762,-0.568 1.627,-0.869 2.609,-0.869 0.156,0 0.301,0.027 0.451,0.042 C 0.368,-0.663 0.103,-0.37 0,0" style="fill:#ffffff;fill-opacity:1;fill-rule:nonzero;stroke:none" id="path680"></path></g><g id="g682" transform="translate(207.8457,157.1476)"><path d="m 0,0 h 3.907 c 0.155,0.559 0.662,0.971 1.27,0.971 0.73,0 1.323,-0.592 1.323,-1.323 0,-0.73 -0.593,-1.323 -1.323,-1.323 -0.608,0 -1.115,0.413 -1.27,0.971 H 0 v -4.869 h 4.908 c 0.155,0.559 0.662,0.971 1.27,0.971 0.441,0 0.813,-0.23 1.054,-0.563 V 7.283 H 0 Z" style="fill:#ffffff;fill-opacity:1;fill-rule:nonzero;stroke:none" id="path684"></path></g><g id="g686" transform="translate(214.0235,149.8998)"><path d="M 0,0 C -0.608,0 -1.115,0.413 -1.27,0.971 H -6.178 V -9.308 H 1.054 V 0.563 C 0.813,0.231 0.442,0 0,0" style="fill:#ffffff;fill-opacity:1;fill-rule:nonzero;stroke:none" id="path688"></path></g><g id="g690" transform="translate(219.5918,149.762)"><path d="M 0,0 C 0.51,-1.989 1.49,-3.763 2.957,-5.314 4.402,-6.82 6.068,-7.846 7.95,-8.398 h 1.711 c 0.155,0.559 0.661,0.971 1.269,0.971 0.731,0 1.323,-0.592 1.323,-1.323 0,-0.034 -0.016,-0.063 -0.019,-0.096 2.065,0.136 3.796,0.815 5.197,2.031 H 6.815 Z" style="fill:#ffffff;fill-opacity:1;fill-rule:nonzero;stroke:none" id="path692"></path></g><g id="g694" transform="translate(229.2041,157.978)"><path d="m 0,0 c 0.887,0.481 1.892,0.74 3.036,0.74 1.67,0 3.068,-0.514 4.193,-1.543 0.096,-0.087 0.164,-0.192 0.252,-0.285 h 8.426 V 0.908 H 4.255 l -4.766,4.766 0.498,0.498 4.56,-4.56 h 11.36 V 4.163 H 8.677 L 5.404,6.77 C 4.335,7.177 3.149,7.393 1.83,7.393 c -2.84,0 -5.273,-0.851 -7.309,-2.526 h 0.612 z" style="fill:#ffffff;fill-opacity:1;fill-rule:nonzero;stroke:none" id="path696"></path></g><g id="g698" transform="translate(227.1167,155.9708)"><path d="m 0,0 c 0.25,0.44 0.543,0.853 0.929,1.205 0.173,0.158 0.364,0.281 0.55,0.415 l -4.55,4.55 h -1.1 C -4.303,6.041 -4.44,5.922 -4.568,5.785 -5.297,5.023 -5.896,4.2 -6.389,3.327 h 3.062 z" style="fill:#ffffff;fill-opacity:1;fill-rule:nonzero;stroke:none" id="path700"></path></g><g id="g702" transform="translate(238.054,153.3425)"><path d="m 0,0 h 2.118 c 0.154,0.559 0.661,0.971 1.269,0.971 0.731,0 1.323,-0.592 1.323,-1.323 0,-0.73 -0.592,-1.323 -1.323,-1.323 -0.608,0 -1.114,0.413 -1.269,0.971 h -2.141 c -0.024,-0.361 -0.072,-0.708 -0.15,-1.035 h 7.23 V 2.843 H -0.808 C -0.302,2.049 -0.032,1.101 0,0" style="fill:#ffffff;fill-opacity:1;fill-rule:nonzero;stroke:none" id="path704"></path></g><g id="g706" transform="translate(245.111,162.8451)"><path d="M 0,0 V 1.652 H -4.916 L -5.114,1.851 H -7.039 V 0.043 L -6.984,0 Z" style="fill:#ffffff;fill-opacity:1;fill-rule:nonzero;stroke:none" id="path708"></path></g><g id="g710" transform="translate(230.0032,147.9016)"><path d="m 0,0 c -0.724,0.257 -1.379,0.645 -1.958,1.175 -0.636,0.579 -1.064,1.294 -1.33,2.113 l -3.608,3.608 h -3.825 c -0.064,-0.544 -0.108,-1.098 -0.108,-1.672 0,-0.731 0.063,-1.433 0.167,-2.117 l 7.357,-7.358 H 7.738 c 0.111,0.122 0.226,0.235 0.331,0.364 v -0.364 h 7.039 v 1.676 H 2.575 Z" style="fill:#ffffff;fill-opacity:1;fill-rule:nonzero;stroke:none" id="path712"></path></g><g id="g714" transform="translate(226.4648,152.4353)"><path d="m 0,0 c -0.022,0.228 -0.058,0.448 -0.058,0.69 0,0.809 0.132,1.532 0.378,2.182 l -3.286,3.287 h -3.14 C -6.568,5.191 -6.9,4.162 -7.09,3.066 h 4.024 z" style="fill:#ffffff;fill-opacity:1;fill-rule:nonzero;stroke:none" id="path716"></path></g><g id="g718" transform="translate(220.9589,136.108)"><path d="M 0,0 C 0.141,-0.255 0.309,-0.479 0.464,-0.717 L 2.558,1.479 Z" style="fill:#ffffff;fill-opacity:1;fill-rule:nonzero;stroke:none" id="path720"></path></g><g id="g722" transform="translate(232.6248,136.6381)"><path d="m 0,0 c -1.591,0 -2.904,0.398 -3.94,1.193 l -3.987,-0.026 -2.882,-3.021 c 1.326,-1.775 3.104,-3.018 5.322,-3.744 l 3.535,3.535 h 12.119 c 0.809,0.963 1.417,2.077 1.8,3.36 L 3.885,1.244 C 2.945,0.424 1.658,0 0,0" style="fill:#ffffff;fill-opacity:1;fill-rule:nonzero;stroke:none" id="path724"></path></g><g id="g726" transform="translate(237.681,150.8996)"><path d="m 0,0 c -0.273,-0.7 -0.685,-1.311 -1.248,-1.823 -1.125,-1.03 -2.523,-1.543 -4.193,-1.543 -0.33,0 -0.641,0.036 -0.95,0.076 l 1.579,-1.579 H 7.43 V 0 Z" style="fill:#ffffff;fill-opacity:1;fill-rule:nonzero;stroke:none" id="path728"></path></g><g id="g730" transform="translate(238.0724,141.7966)"><path d="m 0,0 c 0,-1.31 -0.317,-2.372 -0.922,-3.21 l 7.611,0.052 C 6.913,-2.186 7.039,-1.141 7.039,0 V 1.15 H 0 Z" style="fill:#ffffff;fill-opacity:1;fill-rule:nonzero;stroke:none" id="path732"></path></g><g id="g734" transform="translate(227.9186,130.8253)"><path d="m 0,0 c 1.345,-0.352 2.821,-0.551 4.465,-0.551 1.441,0 2.785,0.168 4.043,0.488 H 4.484 v 0.704 h 6.1 c 1.039,0.454 2.006,1.035 2.896,1.749 0.265,0.206 0.508,0.428 0.744,0.656 H 3.046 Z" style="fill:#ffffff;fill-opacity:1;fill-rule:nonzero;stroke:none" id="path736"></path></g><g id="g738" transform="translate(227.1294,139.6754)"><path d="m 0,0 -2.024,-1.17 2.85,0.019 C 0.52,-0.81 0.24,-0.433 0,0" style="fill:#ffffff;fill-opacity:1;fill-rule:nonzero;stroke:none" id="path740"></path></g><path d="m 250.413,162.845 h 7.232 v 1.652 h -7.232 z" style="fill:#ffffff;fill-opacity:1;fill-rule:nonzero;stroke:none" id="path742"></path><path d="m 250.413,159.59 h 7.232 v 2.551 h -7.232 z" style="fill:#ffffff;fill-opacity:1;fill-rule:nonzero;stroke:none" id="path744"></path><g id="g746" transform="translate(250.4134,157.8355)"><path d="m 0,0 c 0.051,0.006 0.098,0.025 0.15,0.025 0.731,0 1.324,-0.592 1.324,-1.323 0,-0.73 -0.593,-1.323 -1.324,-1.323 -0.052,0 -0.099,0.02 -0.15,0.026 V -6.232 H 7.232 V 1.051 H 0 Z" style="fill:#ffffff;fill-opacity:1;fill-rule:nonzero;stroke:none" id="path748"></path></g><path d="m 250.413,146.031 h 7.232 v 4.869 h -7.232 z" style="fill:#ffffff;fill-opacity:1;fill-rule:nonzero;stroke:none" id="path750"></path><g id="g752" transform="translate(249.6904,171.1558)"><path d="m 0,0 c 0,-0.428 0.073,-0.828 0.182,-1.214 h 8.307 c 0.112,0.386 0.189,0.786 0.189,1.214 0,0.682 -0.16,1.3 -0.446,1.866 H 0.429 C 0.154,1.3 0,0.682 0,0" style="fill:#ffffff;fill-opacity:1;fill-rule:nonzero;stroke:none" id="path754"></path></g><g id="g756" transform="translate(250.9434,168.0705)"><path d="m 0,0 c 0.868,-0.836 1.896,-1.254 3.086,-1.254 1.188,0 2.2,0.418 3.037,1.254 0.359,0.359 0.626,0.753 0.837,1.168 H -0.805 C -0.603,0.753 -0.346,0.359 0,0" style="fill:#ffffff;fill-opacity:1;fill-rule:nonzero;stroke:none" id="path758"></path></g><path d="m 250.413,140.592 h 7.232 v 4.735 h -7.232 z" style="fill:#ffffff;fill-opacity:1;fill-rule:nonzero;stroke:none" id="path760"></path><g id="g762" transform="translate(257.066,174.193)"><path d="M 0,0 C -0.836,0.868 -1.848,1.302 -3.036,1.302 -4.226,1.302 -5.254,0.868 -6.123,0 -6.27,-0.148 -6.389,-0.308 -6.511,-0.468 H 0.404 C 0.277,-0.308 0.154,-0.148 0,0" style="fill:#ffffff;fill-opacity:1;fill-rule:nonzero;stroke:none" id="path764"></path></g><g id="g766" transform="translate(272.1062,157.3675)"><path d="m 0,0 v 0.387 h 4.965 v 1.132 h -1.32 l -4.766,4.765 0.497,0.498 4.56,-4.56 H 4.965 V 7.244 L 4.86,7.328 H 0 V 8.909 H -7.232 V 7.328 h -3.856 v -1.85 h 5.61 z" style="fill:#ffffff;fill-opacity:1;fill-rule:nonzero;stroke:none" id="path768"></path></g><g id="g770" transform="translate(273.9593,147.2324)"><path d="m 0,0 1.202,-1.202 h 1.91 v 1.118 C 1.785,-0.154 0.753,-0.124 0,0" style="fill:#ffffff;fill-opacity:1;fill-rule:nonzero;stroke:none" id="path772"></path></g><g id="g774" transform="translate(270.688,140.6602)"><path d="M 0,0 C 0.294,-0.054 0.599,-0.101 0.919,-0.138 0.9,-0.09 0.87,-0.05 0.856,0 Z" style="fill:#ffffff;fill-opacity:1;fill-rule:nonzero;stroke:none" id="path776"></path></g><g id="g778" transform="translate(272.0368,153.3425)"><path d="m 0,0 h 0.069 v 3.03 l -5.768,5.769 h -5.32 V 5.955 h 5.064 z" style="fill:#ffffff;fill-opacity:1;fill-rule:nonzero;stroke:none" id="path780"></path></g><g id="g782" transform="translate(265.0854,146.5603)"><path d="m 0,0 c 0.354,-2.107 1.163,-3.669 2.441,-4.667 0.265,-0.198 0.568,-0.371 0.892,-0.529 h 3.126 c 0.155,0.558 0.662,0.971 1.269,0.971 0.731,0 1.324,-0.593 1.324,-1.323 0,-0.223 -0.07,-0.424 -0.167,-0.608 0.952,0.008 1.984,0.069 3.101,0.187 v 2.356 H 3.613 Z" style="fill:#ffffff;fill-opacity:1;fill-rule:nonzero;stroke:none" id="path784"></path></g><g id="g786" transform="translate(266.4687,168.9306)"><path d="M 0,0 1.176,1.176 -1.594,0.345 V -1.951 H 5.638 V 2.515 L 2.598,1.603 0.498,-0.498 Z" style="fill:#ffffff;fill-opacity:1;fill-rule:nonzero;stroke:none" id="path788"></path></g><g id="g790" transform="translate(277.0717,143.6509)"><path d="m 0,0 v 1.676 h -2.202 l -9.471,9.471 h -0.524 V 5.57 c 0,-0.536 0.028,-1.038 0.069,-1.524 L -8.082,0 Z" style="fill:#ffffff;fill-opacity:1;fill-rule:nonzero;stroke:none" id="path792"></path></g><g id="g794" transform="translate(272.1227,149.0691)"><path d="M 0,0 C -0.003,0.053 -0.016,0.096 -0.016,0.152 V 3.57 h -0.361 l -5.956,5.955 h -4.771 v -0.84 h 3.856 V 6.432 h 0.816 z" style="fill:#ffffff;fill-opacity:1;fill-rule:nonzero;stroke:none" id="path796"></path></g><g id="g798" transform="translate(298.1876,162.8451)"><path d="m 0,0 h 2.184 c 0.155,0.559 0.662,0.971 1.269,0.971 0.731,0 1.324,-0.592 1.324,-1.323 0,-0.73 -0.593,-1.323 -1.324,-1.323 -0.607,0 -1.114,0.413 -1.269,0.971 h -17.029 c -0.162,-0.159 -0.327,-0.311 -0.485,-0.482 -0.598,-0.649 -1.11,-1.341 -1.549,-2.069 H 7.232 V 1.652 H 0 Z" style="fill:#ffffff;fill-opacity:1;fill-rule:nonzero;stroke:none" id="path800"></path></g><g id="g802" transform="translate(282.4633,153.3425)"><path d="M 0,0 C 0.155,0.559 0.662,0.971 1.27,0.971 2,0.971 2.593,0.379 2.593,-0.352 2.593,-1.082 2,-1.675 1.27,-1.675 0.662,-1.675 0.155,-1.262 0,-0.704 h -2.98 c 0,-0.352 0.02,-0.694 0.041,-1.035 h 7.271 c -0.044,0.335 -0.081,0.675 -0.081,1.04 0,1.41 0.338,2.586 0.989,3.542 H -2.557 C -2.781,1.942 -2.91,0.992 -2.952,0 Z" style="fill:#ffffff;fill-opacity:1;fill-rule:nonzero;stroke:none" id="path804"></path></g><g id="g806" transform="translate(280.108,156.8897)"><path d="m 0,0 h 8.162 c 0.013,0.014 0.022,0.031 0.036,0.045 1.06,1.06 2.441,1.59 4.145,1.59 1.703,0 3.085,-0.53 4.147,-1.59 1.06,-1.061 1.59,-2.492 1.59,-4.291 0,-0.366 -0.037,-0.705 -0.081,-1.04 h 2.812 c 0.154,0.558 0.661,0.971 1.269,0.971 0.731,0 1.323,-0.593 1.323,-1.323 0,-0.731 -0.592,-1.323 -1.323,-1.323 -0.608,0 -1.114,0.412 -1.269,0.971 h -2.952 c -0.241,-0.999 -0.682,-1.859 -1.369,-2.547 -1.062,-1.06 -2.444,-1.591 -4.147,-1.591 -1.704,0 -3.085,0.531 -4.145,1.591 C 7.51,-7.849 7.069,-6.989 6.827,-5.99 H -0.52 c 0.196,-1.782 0.701,-3.404 1.512,-4.869 h 20.82 c 0.155,0.559 0.662,0.971 1.27,0.971 0.73,0 1.323,-0.592 1.323,-1.323 0,-0.731 -0.593,-1.323 -1.323,-1.323 -0.608,0 -1.115,0.413 -1.27,0.971 H 1.406 c 0.377,-0.585 0.802,-1.145 1.284,-1.676 h 6.268 c 0.155,0.559 0.662,0.971 1.27,0.971 0.73,0 1.323,-0.592 1.323,-1.323 0,-0.73 -0.593,-1.323 -1.323,-1.323 -0.608,0 -1.115,0.413 -1.27,0.971 H 3.387 c 2.121,-2.013 4.622,-3.03 7.51,-3.03 3.117,0 5.511,0.98 7.183,2.94 v -2.265 h 7.231 V 1.996 H 0.811 C 0.482,1.36 0.215,0.693 0,0" style="fill:#ffffff;fill-opacity:1;fill-rule:nonzero;stroke:none" id="path808"></path></g><g id="g810" transform="translate(291.005,165.3707)"><path d="M 0,0 C -0.647,0 -1.27,-0.065 -1.88,-0.17 H 2.093 C 1.435,-0.059 0.739,0 0,0" style="fill:#ffffff;fill-opacity:1;fill-rule:nonzero;stroke:none" id="path812"></path></g><g id="g814" transform="translate(295.4273,164.4972)"><path d="m 0,0 h -8.682 c -0.927,-0.406 -1.801,-0.961 -2.627,-1.652 H 2.362 C 1.681,-0.958 0.894,-0.407 0,0" style="fill:#ffffff;fill-opacity:1;fill-rule:nonzero;stroke:none" id="path816"></path></g><g id="g818" transform="translate(317.9523,143.6509)"><path d="m 0,0 v 6.623 l -4.523,4.524 H -7.232 V 6.3 l 6.3,-6.3 z" style="fill:#ffffff;fill-opacity:1;fill-rule:nonzero;stroke:none" id="path820"></path></g><g id="g822" transform="translate(317.9523,151.2696)"><path d="m 0,0 v 3.192 l -4.132,4.132 h -3.1 V 4.232 h 3 z" style="fill:#ffffff;fill-opacity:1;fill-rule:nonzero;stroke:none" id="path824"></path></g><g id="g826" transform="translate(310.7206,175.7842)"><path d="M 0,0 V -0.926 L 0.926,0 Z" style="fill:#ffffff;fill-opacity:1;fill-rule:nonzero;stroke:none" id="path828"></path></g><g id="g830" transform="translate(317.9523,155.4571)"><path d="M 0,0 V 3.099 L -3.585,6.684 H -7.232 V 3.841 h 3.391 z" style="fill:#ffffff;fill-opacity:1;fill-rule:nonzero;stroke:none" id="path832"></path></g><g id="g834" transform="translate(312.6401,140.5915)"><path d="M 0,0 H 5.312 V 0.069 H 0.069 Z" style="fill:#ffffff;fill-opacity:1;fill-rule:nonzero;stroke:none" id="path836"></path></g><g id="g838" transform="translate(312.6418,175.7842)"><path d="M 0,0 -1.921,-1.921 V -4.914 L 2.993,0 Z" style="fill:#ffffff;fill-opacity:1;fill-rule:nonzero;stroke:none" id="path840"></path></g><g id="g842" transform="translate(317.9523,171.3886)"><path d="M 0,0 -2.956,-2.956 -3.453,-2.458 0,0.995 v 3.401 h -1.322 l -5.91,-5.91 V -4.409 H 0 Z" style="fill:#ffffff;fill-opacity:1;fill-rule:nonzero;stroke:none" id="path844"></path></g><g id="g846" transform="translate(317.9523,159.5515)"><path d="M 0,0 V 6.725 H -7.232 V 3.294 h 3.939 z" style="fill:#ffffff;fill-opacity:1;fill-rule:nonzero;stroke:none" id="path848"></path></g><g id="g850" transform="translate(310.7206,148.9551)"><path d="m 0,0 v -8.364 h 0.924 l 0.773,0.773 h 5.535 v 1.583 H 6.008 Z" style="fill:#ffffff;fill-opacity:1;fill-rule:nonzero;stroke:none" id="path852"></path></g><path d="m 338.923,159.59 h 7.714 v 2.551 h -7.714 z" style="fill:#ffffff;fill-opacity:1;fill-rule:nonzero;stroke:none" id="path854"></path><g id="g856" transform="translate(355.3136,169.9418)"><path d="M 0,0 V 2.727 L -2.727,0 Z" style="fill:#ffffff;fill-opacity:1;fill-rule:nonzero;stroke:none" id="path858"></path></g><path d="m 338.923,146.031 h 7.714 v 4.869 h -7.714 z" style="fill:#ffffff;fill-opacity:1;fill-rule:nonzero;stroke:none" id="path860"></path><g id="g862" transform="translate(355.3136,173.7253)"><path d="M 0,0 V 0.612 H -2.319 L -2.931,0 Z" style="fill:#ffffff;fill-opacity:1;fill-rule:nonzero;stroke:none" id="path864"></path></g><g id="g866" transform="translate(338.9232,144.4894)"><path d="M 0,0 C 0.45,-0.211 0.766,-0.661 0.766,-1.191 0.766,-1.72 0.45,-2.17 0,-2.381 V -3.898 H 7.714 V 0.837 H 0 Z" style="fill:#ffffff;fill-opacity:1;fill-rule:nonzero;stroke:none" id="path868"></path></g><g id="g870" transform="translate(338.9232,156.8897)"><path d="m 0,0 h 0.693 c 0.155,0.559 0.662,0.971 1.27,0.971 0.73,0 1.323,-0.592 1.323,-1.323 0,-0.73 -0.593,-1.323 -1.323,-1.323 -0.608,0 -1.115,0.413 -1.27,0.971 H 0 V -5.286 H 7.714 V 1.996 H 0 Z" style="fill:#ffffff;fill-opacity:1;fill-rule:nonzero;stroke:none" id="path872"></path></g><g id="g874" transform="translate(330.2454,173.7253)"><path d="m 0,0 h 21.141 l 0.612,0.612 H 0 Z" style="fill:#ffffff;fill-opacity:1;fill-rule:nonzero;stroke:none" id="path876"></path></g><g id="g878" transform="translate(355.3136,166.9801)"><path d="m 0,0 v 2.258 h -3.43 -2.504 -16.293 v 0.704 h 16.293 v 0 h 2.212 l 3.08,3.079 H -3.635 L -4.603,5.073 h -1.331 v 0.704 h 1.039 l 0.264,0.264 h -20.437 v -6.108 h 8.678 v -1.712 h 7.713 v 1.712 h 2.743 V 0 Z" style="fill:#ffffff;fill-opacity:1;fill-rule:nonzero;stroke:none" id="path880"></path></g><path d="m 338.923,162.845 h 7.714 v 1.652 h -7.714 z" style="fill:#ffffff;fill-opacity:1;fill-rule:nonzero;stroke:none" id="path882"></path><g id="g884" transform="translate(375.8591,162.8451)"><path d="M 0,0 -0.481,1.652 H -3.543 L -3.742,1.851 H -7.288 L -7.41,1.433 -5.611,0 Z" style="fill:#ffffff;fill-opacity:1;fill-rule:nonzero;stroke:none" id="path886"></path></g><g id="g888" transform="translate(362.4133,156.8897)"><path d="m 0,0 h 1.024 l -1.521,5.66 -1.102,1.102 0.498,0.498 0.239,-0.239 -0.211,0.785 h -7.714 l 0.592,-1.851 h 2.24 z" style="fill:#ffffff;fill-opacity:1;fill-rule:nonzero;stroke:none" id="path890"></path></g><g id="g892" transform="translate(361.0929,141.364)"><path d="m 0,0 h 0.281 c 0.154,0.559 0.661,0.971 1.269,0.971 0.731,0 1.323,-0.592 1.323,-1.323 0,-0.149 -0.039,-0.287 -0.085,-0.42 h 4.208 l 0.706,2.355 h -8.209 z" style="fill:#ffffff;fill-opacity:1;fill-rule:nonzero;stroke:none" id="path894"></path></g><g id="g896" transform="translate(369.5079,145.3269)"><path d="m 0,0 h -4.809 l -7.168,7.168 2.83,-8.844 h 8.645 z" style="fill:#ffffff;fill-opacity:1;fill-rule:nonzero;stroke:none" id="path898"></path></g><g id="g900" transform="translate(376.0639,162.1412)"><path d="M 0,0 H -6.062 L -7.827,1.406 -8.979,-2.551 H 0.743 Z" style="fill:#ffffff;fill-opacity:1;fill-rule:nonzero;stroke:none" id="path902"></path></g><g id="g904" transform="translate(374.8859,143.6509)"><path d="m 0,0 h 4.009 c 0.155,0.559 0.662,0.971 1.27,0.971 0.731,0 1.323,-0.592 1.323,-1.323 0,-0.731 -0.592,-1.323 -1.323,-1.323 -0.608,0 -1.115,0.413 -1.27,0.971 H 0.211 l 0.706,-2.355 h 6.749 l 1.515,4.735 h -9.683 z" style="fill:#ffffff;fill-opacity:1;fill-rule:nonzero;stroke:none" id="path906"></path></g><g id="g908" transform="translate(382.0549,162.8451)"><path d="M 0,0 H 7.618 L 8.146,1.652 H 0.444 Z" style="fill:#ffffff;fill-opacity:1;fill-rule:nonzero;stroke:none" id="path910"></path></g><g id="g912" transform="translate(380.4547,156.8897)"><path d="m 0,0 h 0.96 c 0.155,0.559 0.662,0.971 1.27,0.971 0.731,0 1.323,-0.592 1.323,-1.323 0,-0.73 -0.592,-1.323 -1.323,-1.323 -0.608,0 -1.115,0.413 -1.27,0.971 h -1.149 l -1.185,-4.41 -1.284,4.41 h -11.703 l -0.827,-2.843 h 6.643 l 0.036,0.12 0.037,-0.12 h 0.31 c 0.155,0.558 0.662,0.971 1.27,0.971 0.73,0 1.323,-0.592 1.323,-1.323 0,-0.731 -0.593,-1.323 -1.323,-1.323 -0.608,0 -1.115,0.412 -1.27,0.971 h -0.1 l 0.311,-1.035 H 5.621 l 2.33,7.282 H 0.536 Z" style="fill:#ffffff;fill-opacity:1;fill-rule:nonzero;stroke:none" id="path914"></path></g><g id="g916" transform="translate(374.1729,146.0307)"><path d="m 0,0 h 10.12 l 1.557,4.869 H -1.459 Z" style="fill:#ffffff;fill-opacity:1;fill-rule:nonzero;stroke:none" id="path918"></path></g><g id="g920" transform="translate(361.8661,153.3425)"><path d="M 0,0 H 2.524 L 1.76,2.843 H 0.256 l -5.955,5.956 h -1.723 l 0.91,-2.844 h 0.557 z" style="fill:#ffffff;fill-opacity:1;fill-rule:nonzero;stroke:none" id="path922"></path></g><g id="g924" transform="translate(377.5924,156.8897)"><path d="M 0,0 -0.581,1.996 H -10.713 L -11.294,0 Z" style="fill:#ffffff;fill-opacity:1;fill-rule:nonzero;stroke:none" id="path926"></path></g><g id="g928" transform="translate(381.8658,162.1412)"><path d="m 0,0 -0.685,-2.551 h 7.45 L 7.582,0 Z" style="fill:#ffffff;fill-opacity:1;fill-rule:nonzero;stroke:none" id="path930"></path></g><g id="g932" transform="translate(361.3181,140.6602)"><path d="M 0,0 0.022,-0.069 H 0.087 C 0.079,-0.045 0.062,-0.025 0.055,0 Z" style="fill:#ffffff;fill-opacity:1;fill-rule:nonzero;stroke:none" id="path934"></path></g><g id="g936" transform="translate(369.7187,146.0307)"><path d="M 0,0 1.459,4.869 H -3.905 V 5.573 H 1.67 L 1.98,6.608 H -4.657 L -4.908,5.745 -5.14,6.608 h -3.004 l -5.955,5.955 H -14.14 L -12.656,7.928 -4.728,0 Z" style="fill:#ffffff;fill-opacity:1;fill-rule:nonzero;stroke:none" id="path938"></path></g><g id="g940" transform="translate(393.157,149.1464)"><path d="m 0,0 v -8.555 h 1.116 l 0.772,0.773 h 5.344 v 1.583 H 6.2 Z" style="fill:#ffffff;fill-opacity:1;fill-rule:nonzero;stroke:none" id="path942"></path></g><g id="g944" transform="translate(396.7733,175.4946)"><path d="m 0,0 c -1.19,0 -2.218,-0.434 -3.086,-1.302 -0.835,-0.836 -1.253,-1.848 -1.253,-3.037 0,-0.372 0.055,-0.722 0.137,-1.063 l 5.259,5.259 C 0.72,-0.058 0.372,0 0,0" style="fill:#ffffff;fill-opacity:1;fill-rule:nonzero;stroke:none" id="path946"></path></g><g id="g948" transform="translate(393.6869,168.0705)"><path d="m 0,0 c 0.573,-0.552 1.222,-0.903 1.934,-1.09 h 2.297 c 0.704,0.187 1.34,0.538 1.892,1.09 0.868,0.868 1.302,1.896 1.302,3.085 0,0.242 -0.031,0.472 -0.067,0.699 L 3.937,0.363 3.44,0.86 7.15,4.571 C 6.935,5.14 6.602,5.661 6.123,6.122 5.745,6.514 5.326,6.805 4.877,7.02 L -0.864,1.279 C -0.657,0.821 -0.377,0.392 0,0" style="fill:#ffffff;fill-opacity:1;fill-rule:nonzero;stroke:none" id="path950"></path></g><g id="g952" transform="translate(395.2677,140.5915)"><path d="M 0,0 H 5.121 V 0.069 H 0.069 Z" style="fill:#ffffff;fill-opacity:1;fill-rule:nonzero;stroke:none" id="path954"></path></g><g id="g956" transform="translate(400.3886,143.6509)"><path d="m 0,0 v 6.815 l -4.332,4.332 h -2.9 V 6.491 L -0.741,0 Z" style="fill:#ffffff;fill-opacity:1;fill-rule:nonzero;stroke:none" id="path958"></path></g><g id="g960" transform="translate(400.3886,159.7428)"><path d="M 0,0 V 4.953 H -7.232 V 3.102 h 4.13 z" style="fill:#ffffff;fill-opacity:1;fill-rule:nonzero;stroke:none" id="path962"></path></g><g id="g964" transform="translate(400.3886,151.4609)"><path d="M 0,0 V 3.192 L -3.941,7.133 H -7.232 V 4.041 h 3.191 z" style="fill:#ffffff;fill-opacity:1;fill-rule:nonzero;stroke:none" id="path966"></path></g><g id="g968" transform="translate(396.9951,162.1412)"><path d="m 0,0 h -3.838 v -2.843 h 3.582 l 3.65,-3.65 v 3.099 z" style="fill:#ffffff;fill-opacity:1;fill-rule:nonzero;stroke:none" id="path970"></path></g><path d="m 405.691,140.592 h 7.232 v 2.356 h -7.232 z" style="fill:#ffffff;fill-opacity:1;fill-rule:nonzero;stroke:none" id="path972"></path><g id="g974" transform="translate(412.9228,153.3425)"><path d="m 0,0 v 0.41 c 0,0.948 0.154,1.748 0.428,2.433 h -7.66 V 0 Z" style="fill:#ffffff;fill-opacity:1;fill-rule:nonzero;stroke:none" id="path976"></path></g><g id="g978" transform="translate(421.6005,144.4559)"><path d="M 0,0 C 0.42,-0.222 0.716,-0.649 0.716,-1.157 0.716,-1.665 0.42,-2.092 0,-2.314 v -1.55 H 7.23 V 0.871 H 0 Z" style="fill:#ffffff;fill-opacity:1;fill-rule:nonzero;stroke:none" id="path980"></path></g><g id="g982" transform="translate(423.8119,164.4972)"><path d="m 0,0 h -8.356 c -0.853,-0.407 -1.58,-0.958 -2.182,-1.652 H 2.285 C 1.6,-0.956 0.837,-0.408 0,0" style="fill:#ffffff;fill-opacity:1;fill-rule:nonzero;stroke:none" id="path984"></path></g><g id="g986" transform="translate(419.8163,165.3707)"><path d="M 0,0 C -0.747,0 -1.443,-0.059 -2.094,-0.17 H 1.882 C 1.284,-0.057 0.657,0 0,0" style="fill:#ffffff;fill-opacity:1;fill-rule:nonzero;stroke:none" id="path988"></path></g><g id="g990" transform="translate(405.691,146.1585)"><path d="M 0,0 0.128,-0.128 H 7.232 V 4.741 H 0.951 V 5.445 H 7.232 V 6.48 H 0 Z" style="fill:#ffffff;fill-opacity:1;fill-rule:nonzero;stroke:none" id="path992"></path></g><g id="g994" transform="translate(407.6236,164.6956)"><path d="m 0,0 h -1.933 v -4.097 l 1.009,-1.009 h 21.459 c -0.343,0.949 -0.822,1.798 -1.43,2.552 H 3.207 Z" style="fill:#ffffff;fill-opacity:1;fill-rule:nonzero;stroke:none" id="path996"></path></g><path d="m 421.601,146.031 h 7.23 v 4.869 h -7.23 z" style="fill:#ffffff;fill-opacity:1;fill-rule:nonzero;stroke:none" id="path998"></path><g id="g1000" transform="translate(405.691,159.6036)"><path d="m 0,0 v -2.714 h 8.012 c 0.123,0.194 0.248,0.386 0.401,0.551 0.787,0.851 1.887,1.278 3.302,1.278 1.253,0 2.266,-0.386 3.037,-1.158 0.202,-0.202 0.374,-0.427 0.524,-0.671 h 1.277 c 0.154,0.559 0.661,0.971 1.269,0.971 0.731,0 1.323,-0.592 1.323,-1.323 0,-0.73 -0.592,-1.323 -1.323,-1.323 -0.608,0 -1.114,0.413 -1.269,0.971 h -0.938 c 0.195,-0.541 0.294,-1.159 0.294,-1.854 V -8 h 7.231 v 3.788 c 0,1.277 -0.157,2.438 -0.454,3.494 H 0.718 Z" style="fill:#ffffff;fill-opacity:1;fill-rule:nonzero;stroke:none" id="path1002"></path></g><path d="m 405.691,143.651 h 7.232 v 1.676 h -7.232 z" style="fill:#ffffff;fill-opacity:1;fill-rule:nonzero;stroke:none" id="path1004"></path><g id="g1006" transform="translate(412.9228,162.8451)"><path d="M 0,0 V 1.851 H -4.17 L -1.847,0 Z" style="fill:#ffffff;fill-opacity:1;fill-rule:nonzero;stroke:none" id="path1008"></path></g></g></g></g></svg> 