<svg xmlns="http://www.w3.org/2000/svg" width="188.518" height="37.102" viewBox="0 0 188.518 37.102">
  <g id="Group_1565" data-name="Group 1565" transform="translate(24422.371 23639.541)">
    <path id="Path_596" data-name="Path 596" d="M26.832.672H22.464Q.672.672.672-12v-.48H15.648q.384,5.04,8.928,5.04h.432a32.707,32.707,0,0,0,4.56-.264,7.781,7.781,0,0,0,2.688-.768,3.1,3.1,0,0,0,1.176-1.056,2.54,2.54,0,0,0,.312-1.272v-.048a2.419,2.419,0,0,0-.5-1.608,4.794,4.794,0,0,0-2.4-1.056,28.284,28.284,0,0,0-5.5-.552l-6.624-.192Q1.2-14.736,1.2-25.008v-.432a10.218,10.218,0,0,1,.528-3.384,8.189,8.189,0,0,1,1.92-2.952,10.965,10.965,0,0,1,3.648-2.4,26.319,26.319,0,0,1,5.928-1.56,53.4,53.4,0,0,1,8.52-.6h4.272q21.7,0,21.7,11.28v.384H32.88q-.432-3.792-8.64-3.792h-.48a25.178,25.178,0,0,0-5.184.408,4.613,4.613,0,0,0-2.256.912,1.957,1.957,0,0,0-.432,1.32v.048a1.868,1.868,0,0,0,.5,1.344,4.926,4.926,0,0,0,2.28.936,25.229,25.229,0,0,0,4.992.456L30.1-22.9q10.128.288,14.5,2.808a8.512,8.512,0,0,1,4.368,7.944v.672A12.476,12.476,0,0,1,48.48-7.9a8.986,8.986,0,0,1-1.92,3.264,11.5,11.5,0,0,1-3.816,2.784A25.363,25.363,0,0,1,36.312-.024,56.706,56.706,0,0,1,26.832.672ZM71.28-20.208q-6.384,0-7.44,3.888H78.72Q77.9-20.208,71.28-20.208Zm20.4,10.8v.1a8.7,8.7,0,0,1-.336,2.448,7.807,7.807,0,0,1-1.536,2.616,10.069,10.069,0,0,1-3.168,2.5A21.41,21.41,0,0,1,81.048,0a43.633,43.633,0,0,1-8.424.72H70.08A35.762,35.762,0,0,1,62.016-.1a18.422,18.422,0,0,1-5.568-2.112,11.818,11.818,0,0,1-3.36-3.1,10.776,10.776,0,0,1-1.752-3.552,14.719,14.719,0,0,1-.456-3.72v-.96q0-13.008,19.056-13.008h2.64a40.531,40.531,0,0,1,6.36.456,23.7,23.7,0,0,1,4.824,1.224,13.364,13.364,0,0,1,3.432,1.92,12.291,12.291,0,0,1,2.328,2.328,10.371,10.371,0,0,1,1.392,2.64,13.222,13.222,0,0,1,.7,2.736,21.137,21.137,0,0,1,.168,2.76v1.44H63.7q.672,4.752,7.824,4.752h.048a15.1,15.1,0,0,0,3.1-.288,9.557,9.557,0,0,0,2.112-.648A4.457,4.457,0,0,0,78-8.064a3.109,3.109,0,0,0,.624-.792,2.538,2.538,0,0,0,.192-.552Zm15.888-26.3V0H94.512V-35.712Zm26.4,0V-28.8h-4.032a1.8,1.8,0,0,0-1.416.432,2.26,2.26,0,0,0-.36,1.44v1.1h5.808v7.92H128.16V0H115.2V-17.9h-5.088v-7.92H115.2v-2.544q0-7.344,9.456-7.344Z" transform="translate(-24423.043 -23603.16)" fill="#1b1a39"/>
    <path id="Path_83" data-name="Path 83" d="M532.689-60.232H516.258l16.383-18.353L516.786-95.976h17.44l9.08,10.521,9.128-10.521h16.191l-15.47,17.248,16.191,18.5H552.578l-9.993-11.194Z" transform="translate(-24804.301 -23543.064)" fill="#6efaef"/>
    <path id="Path_83_-_Outline" data-name="Path 83 - Outline" d="M570.448-59.732H552.355l-9.767-10.941-9.673,10.941H515.141l16.826-18.849-16.313-17.9h18.8l8.852,10.257,8.9-10.257h17.539L553.823-78.724Zm-17.646-1h15.441l-15.756-18,15.018-16.743H552.663L543.305-84.69,534-95.476H517.919l15.4,16.888-15.94,17.856h15.089l10.121-11.447Z" transform="translate(-24804.301 -23543.064)" fill="rgba(0,0,0,0)"/>
  </g>
</svg>
