<svg xmlns="http://www.w3.org/2000/svg" width="240.331" height="47.209" viewBox="0 0 240.331 47.209">
  <g id="selfx-logo" transform="translate(14751.205 -4333.573)">
    <path id="Path_277" data-name="Path 277" d="M36.044-99.71H30.479q-27.763,0-27.763-16.144v-.612H21.8q.489,6.421,11.374,6.421h.55a41.67,41.67,0,0,0,5.809-.336,9.913,9.913,0,0,0,3.424-.978,3.944,3.944,0,0,0,1.5-1.345,3.237,3.237,0,0,0,.4-1.621v-.061a3.082,3.082,0,0,0-.642-2.049,6.107,6.107,0,0,0-3.058-1.345,36.035,36.035,0,0,0-7-.7l-8.439-.245q-22.32-.612-22.32-13.7v-.55a13.017,13.017,0,0,1,.673-4.311,10.433,10.433,0,0,1,2.446-3.761,13.97,13.97,0,0,1,4.648-3.058,33.531,33.531,0,0,1,7.552-1.987,68.034,68.034,0,0,1,10.854-.764H35q27.641,0,27.641,14.371V-132h-18.9q-.55-4.831-11.007-4.831H32.13a32.077,32.077,0,0,0-6.6.52,5.877,5.877,0,0,0-2.874,1.162,2.494,2.494,0,0,0-.55,1.682v.061a2.379,2.379,0,0,0,.642,1.712,6.275,6.275,0,0,0,2.9,1.192,32.142,32.142,0,0,0,6.36.581l8.194.183q12.9.367,18.468,3.577t5.565,10.121v.856a15.894,15.894,0,0,1-.612,4.556,11.448,11.448,0,0,1-2.446,4.158,14.654,14.654,0,0,1-4.862,3.547,32.312,32.312,0,0,1-8.194,2.324A72.242,72.242,0,0,1,36.044-99.71Zm56.626-26.6q-8.133,0-9.479,4.953h18.957Q101.109-126.311,92.67-126.311Zm25.989,13.759v.122a11.087,11.087,0,0,1-.428,3.119,9.946,9.946,0,0,1-1.957,3.333,12.827,12.827,0,0,1-4.036,3.18,27.277,27.277,0,0,1-7.124,2.232,55.589,55.589,0,0,1-10.732.917H91.141a45.561,45.561,0,0,1-10.273-1.04,23.47,23.47,0,0,1-7.094-2.691,15.056,15.056,0,0,1-4.281-3.944,13.728,13.728,0,0,1-2.232-4.525,18.751,18.751,0,0,1-.581-4.739v-1.223q0-16.572,24.277-16.572h3.363a51.637,51.637,0,0,1,8.1.581,30.192,30.192,0,0,1,6.146,1.559,17.026,17.026,0,0,1,4.372,2.446,15.66,15.66,0,0,1,2.966,2.966,13.213,13.213,0,0,1,1.773,3.363,16.845,16.845,0,0,1,.887,3.486,26.926,26.926,0,0,1,.214,3.516v1.835H83.008q.856,6.054,9.968,6.054h.061a19.236,19.236,0,0,0,3.944-.367,12.176,12.176,0,0,0,2.691-.826,5.678,5.678,0,0,0,1.559-1.07,3.96,3.96,0,0,0,.795-1.009,3.233,3.233,0,0,0,.245-.7ZM138.9-146.063v45.5H122.268v-45.5Zm33.633,0v8.806H167.4a2.3,2.3,0,0,0-1.8.55,2.88,2.88,0,0,0-.459,1.835v1.406h7.4v10.09h-7.4v22.81H148.624v-22.81h-6.482v-10.09h6.482v-3.241q0-9.356,12.047-9.356Z" transform="translate(-14753.921 4480.431)" fill="#fff"/>
    <path id="Path_83" data-name="Path 83" d="M537.2-50.41H516.258l20.884-23.4L516.931-95.976h22.232l11.575,13.413,11.637-13.413h20.64L563.294-73.989l20.64,23.579H562.559L549.82-64.68Z" transform="translate(-15094.808 4430.262)" fill="#6efaef"/>
  </g>
</svg>
