<svg width="163" height="41" viewBox="0 0 163 41" fill="none" xmlns="http://www.w3.org/2000/svg">
<g clip-path="url(#clip0_19_126)">
<path d="M18.7983 0.539062H34.8957V8.5846L18.7983 0.539062Z" fill="#00B3F6"/>
<path d="M18.7983 0.539062H34.8957V5.81418L18.7983 0.539062Z" fill="#00C9FF"/>
<path d="M16.0977 37.1276H0V29.082L16.0977 37.1276Z" fill="#5453F9"/>
<path d="M16.0977 37.1277H0V34.3533L16.0977 37.1277Z" fill="#4243D3"/>
<path d="M57.3802 0.539062L73.4776 8.5846V27.8616L38.845 10.5519V0.539062H57.3802Z" fill="#00C9FF"/>
<path d="M73.4776 8.58472V27.8618L38.845 10.552L73.4776 8.58472Z" fill="#00B3F6"/>
<path d="M73.4776 22.7116V27.8618L38.845 10.552L73.4776 22.7116Z" fill="#00A0EA"/>
<path d="M34.6326 37.1276V17.8485L0 0.539062V19.8178L34.6326 37.1276Z" fill="#5453F9"/>
<path d="M0 0.539062V19.8178L34.6326 37.1276L0 0.539062Z" fill="#4243D3"/>
<path d="M63.0433 37.1276H38.5818V19.8162L68.1309 34.5847L63.0433 37.1276Z" fill="#5453F9"/>
<path d="M63.0433 37.1276H38.5818V19.8162L63.0433 37.1276Z" fill="#4243D3"/>
<path d="M152.71 33.9351H148.767V38.0694H152.71V33.9351Z" fill="#00B3F6"/>
<path d="M90.4916 16.4732C90.4875 16.9511 90.5293 17.4283 90.6166 17.8982C90.684 18.2908 90.8451 18.6613 91.086 18.9784C91.3303 19.2826 91.6479 19.5197 92.0089 19.6674C92.4717 19.8486 92.9666 19.9339 93.4633 19.918C94.144 19.9209 94.8036 19.6825 95.3254 19.245C95.8779 18.7964 96.1543 18.1019 96.1547 17.1616C96.1642 16.7197 96.0953 16.2796 95.9511 15.8618C95.8072 15.4848 95.5768 15.1469 95.2783 14.8755C94.9101 14.5468 94.4931 14.2772 94.0423 14.0763C93.4256 13.7953 92.7935 13.5496 92.1489 13.3406C91.2529 13.0515 90.3839 12.6847 89.5516 12.2443C88.8686 11.8841 88.2499 11.4132 87.7207 10.8507C87.2313 10.3203 86.863 9.68972 86.6413 9.00272C86.3991 8.21737 86.2829 7.39856 86.297 6.57678C86.297 4.36414 86.9125 2.7147 88.1434 1.62845C89.3743 0.542201 91.0643 -0.000637228 93.2135 -6.64195e-05C94.147 -0.00823463 95.0777 0.102244 95.9833 0.328719C96.7804 0.524736 97.527 0.887556 98.1739 1.39328C98.7975 1.89491 99.2913 2.53944 99.6135 3.27238C99.9781 4.13861 100.154 5.07262 100.13 6.01225V6.64014H95.811C95.811 5.57464 95.6232 4.75515 95.2475 4.18167C94.8718 3.6082 94.2459 3.32108 93.3698 3.32032C92.9417 3.3068 92.5154 3.3812 92.1172 3.53894C91.8091 3.66623 91.5354 3.86478 91.3187 4.11831C91.1198 4.35914 90.9805 4.64348 90.912 4.94827C90.8381 5.2664 90.8013 5.59203 90.8022 5.91864C90.7813 6.52779 90.9331 7.13041 91.2403 7.65675C91.5325 8.12672 92.1584 8.56006 93.118 8.95677L96.5948 10.46C97.3356 10.7712 98.039 11.1652 98.6915 11.6344C99.1926 11.9997 99.6312 12.4438 99.9902 12.9496C100.313 13.4178 100.541 13.9443 100.663 14.4999C100.794 15.1175 100.857 15.7476 100.851 16.379C100.851 18.7383 100.167 20.4556 98.801 21.5308C97.4345 22.606 95.5308 23.1436 93.0897 23.1436C90.5441 23.1436 88.7238 22.5904 87.6289 21.484C86.5339 20.3776 85.9862 18.7911 85.9856 16.7246V15.8156H90.4916V16.4732Z" fill="#100D54"/>
<path d="M115.245 4.13364H110.363V22.7991H105.857V4.13364H100.974V0.438232H115.245V4.13364Z" fill="#100D54"/>
<path d="M124.446 0.438232L130.361 22.7994H125.667L124.635 18.0705H118.687L117.655 22.7994H112.96L118.875 0.438232H124.446ZM123.851 14.3748L121.692 4.32201H121.629L119.47 14.3751L123.851 14.3748Z" fill="#100D54"/>
<path d="M141.627 15.7542H141.689V0.438232H145.819V22.7994H140.685L135.18 7.14037H135.117V22.7994H130.986V0.438232H136.181L141.627 15.7542Z" fill="#100D54"/>
<path d="M155.615 0.438232C157.179 0.438232 158.441 0.693954 159.401 1.2054C160.345 1.7018 161.123 2.46401 161.639 3.39787C162.208 4.46413 162.574 5.62704 162.718 6.82729C162.916 8.31173 163.01 9.80808 163 11.3056C163.018 13.0193 162.898 14.7317 162.64 16.426C162.466 17.6905 162.046 18.9087 161.404 20.0118C160.846 20.9279 160.029 21.658 159.057 22.1101C157.88 22.6078 156.609 22.8429 155.333 22.7991H148.229V0.438232H155.615ZM154.739 19.4795C155.399 19.5093 156.056 19.3691 156.647 19.0725C157.163 18.7589 157.563 18.2863 157.788 17.7257C158.108 16.9369 158.299 16.1013 158.352 15.2516C158.446 14.2289 158.493 12.9552 158.493 11.4306C158.493 10.1575 158.451 9.0405 158.367 8.07964C158.315 7.25977 158.141 6.45228 157.851 5.68367C157.627 5.09299 157.222 4.58864 156.693 4.24324C156.069 3.89143 155.359 3.72324 154.643 3.75805H152.734V19.4795H154.739Z" fill="#100D54"/>
<path d="M90.1545 31.3548C90.4233 31.543 90.661 31.7722 90.8589 32.034V28.5344H91.9774V38.0695H90.9302V37.1057C90.6981 37.4951 90.3654 37.8146 89.9671 38.0307C89.5715 38.2263 89.1347 38.3242 88.6934 38.3161C88.308 38.314 87.9279 38.2255 87.5811 38.057C87.2343 37.8885 86.9297 37.6444 86.6897 37.3426C86.0974 36.613 85.7958 35.6899 85.8429 34.7511C85.8205 33.8176 86.0905 32.9004 86.6152 32.1282C86.8577 31.7698 87.1879 31.4796 87.5743 31.2853C87.9608 31.0911 88.3906 30.9992 88.8226 31.0186C89.2894 31.0021 89.7513 31.1187 90.1545 31.3548ZM87.543 36.5491C87.7044 36.7984 87.93 36.9997 88.1959 37.1317C88.4619 37.2637 88.7584 37.3216 89.0545 37.2995C89.3159 37.3015 89.5739 37.2391 89.8055 37.1178C90.0372 36.9965 90.2355 36.82 90.3829 36.6039C90.7297 36.1404 90.9031 35.4753 90.9031 34.6084C90.9031 33.7332 90.7243 33.0851 90.3667 32.6642C90.2081 32.4653 90.0064 32.3052 89.7769 32.1959C89.5473 32.0866 89.2959 32.0311 89.0417 32.0335C88.768 32.0261 88.4963 32.0831 88.2487 32.2C88.001 32.3168 87.7842 32.4902 87.6157 32.7062C87.2514 33.1548 87.0694 33.8147 87.0696 34.6857C87.0467 35.3395 87.2109 35.9862 87.543 36.5497V36.5491Z" fill="#100D54"/>
<path d="M97.6685 28.5669H98.8512V29.8866H97.6685V28.5669ZM97.6685 31.1738H98.8512V38.0697H97.6685V31.1738Z" fill="#100D54"/>
<path d="M108.446 31.4196C108.702 31.6052 108.928 31.8277 109.119 32.0797V31.2064H110.192V37.507C110.224 38.2221 110.092 38.9351 109.804 39.5904C109.321 40.5305 108.41 41.0006 107.069 41.0006C106.406 41.0234 105.751 40.8489 105.187 40.4991C104.93 40.3242 104.719 40.0906 104.571 39.8176C104.423 39.5446 104.341 39.2401 104.334 38.9294H105.517C105.553 39.1976 105.67 39.4484 105.853 39.6475C106.2 39.9351 106.646 40.0745 107.094 40.0356C107.986 40.0356 108.57 39.7207 108.846 39.0909C109.01 38.7199 109.085 38.058 109.072 37.1051C108.864 37.4359 108.575 37.7076 108.232 37.8942C107.694 38.1335 107.098 38.2098 106.518 38.1138C105.937 38.0177 105.397 37.7536 104.965 37.354C104.402 36.8212 104.121 35.9404 104.121 34.7114C104.121 33.5508 104.404 32.6451 104.971 31.9944C105.218 31.6881 105.531 31.4413 105.887 31.2722C106.242 31.1032 106.631 31.0161 107.024 31.0174C107.528 31.0065 108.023 31.1466 108.446 31.4196ZM108.589 32.6682C108.426 32.469 108.219 32.3096 107.985 32.202C107.751 32.0944 107.495 32.0414 107.238 32.0472C106.87 32.0264 106.506 32.128 106.202 32.3363C105.897 32.5446 105.671 32.8478 105.557 33.1985C105.381 33.7165 105.3 34.2623 105.318 34.8093C105.318 35.5894 105.476 36.1835 105.793 36.5917C105.941 36.7887 106.134 36.9471 106.357 37.0535C106.579 37.1599 106.823 37.2112 107.07 37.203C107.445 37.2235 107.818 37.1251 108.135 36.9219C108.451 36.7187 108.696 36.421 108.834 36.0708C109.033 35.5983 109.13 35.0892 109.12 34.5767C109.119 33.7184 108.942 33.0822 108.589 32.6682Z" fill="#100D54"/>
<path d="M115.915 28.5669H117.098V29.8866H115.915V28.5669ZM115.915 31.1738H117.098V38.0697H115.915V31.1738Z" fill="#100D54"/>
<path d="M123.061 29.2073H124.237V31.1412H125.342V32.0921H124.237V36.6141C124.225 36.7102 124.242 36.8076 124.286 36.894C124.33 36.9803 124.398 37.0518 124.482 37.0993C124.626 37.1561 124.781 37.1804 124.935 37.1703C124.991 37.1703 125.051 37.1692 125.116 37.1669C125.181 37.1649 125.256 37.1595 125.342 37.1506V38.0694C125.206 38.1087 125.066 38.1369 124.925 38.1535C124.77 38.1713 124.613 38.18 124.457 38.1795C123.914 38.1795 123.545 38.0404 123.351 37.7623C123.144 37.4396 123.043 37.0607 123.06 36.6777V32.0913H122.123V31.1403H123.061V29.2073Z" fill="#100D54"/>
<path d="M134.188 33.8715C134.299 33.8677 134.407 33.8346 134.501 33.7755C134.596 33.7164 134.673 33.6335 134.725 33.535C134.784 33.394 134.81 33.2415 134.802 33.0889C134.816 32.9202 134.783 32.7511 134.709 32.5992C134.634 32.4473 134.521 32.3182 134.379 32.2253C134.008 32.025 133.588 31.9321 133.167 31.957C132.559 31.957 132.128 32.1209 131.874 32.4487C131.711 32.6884 131.615 32.9677 131.596 33.2573H130.51C130.532 32.4034 130.809 31.8093 131.341 31.4752C131.898 31.1342 132.54 30.9602 133.193 30.9738C133.885 30.9437 134.571 31.1048 135.177 31.4396C135.423 31.5891 135.624 31.8032 135.757 32.0586C135.89 32.314 135.951 32.601 135.934 32.8886V36.8796C135.928 36.9821 135.954 37.0836 136.008 37.171C136.048 37.2134 136.097 37.2455 136.151 37.2646C136.206 37.2838 136.264 37.2894 136.322 37.2809C136.373 37.2809 136.432 37.2778 136.496 37.2715C136.561 37.2649 136.63 37.2552 136.703 37.243V38.1015C136.568 38.1429 136.429 38.1753 136.289 38.1985C136.161 38.2134 136.031 38.2198 135.902 38.2179C135.731 38.231 135.561 38.1983 135.407 38.123C135.254 38.0477 135.123 37.9327 135.029 37.7898C134.919 37.5923 134.851 37.3743 134.829 37.1494C134.553 37.4919 134.203 37.7684 133.806 37.9588C133.352 38.1897 132.848 38.3072 132.339 38.3012C132.051 38.3125 131.763 38.2666 131.493 38.166C131.223 38.0655 130.975 37.9124 130.765 37.7156C130.566 37.5282 130.408 37.3008 130.303 37.0483C130.197 36.7958 130.147 36.5239 130.154 36.2503C130.137 35.9723 130.183 35.6942 130.287 35.4359C130.391 35.1776 130.551 34.9455 130.755 34.7562C131.202 34.3829 131.752 34.1549 132.332 34.1027L134.188 33.8715ZM131.738 37.0218C131.986 37.2169 132.295 37.3197 132.61 37.3129C133.024 37.3118 133.431 37.214 133.8 37.0275C134.099 36.8993 134.353 36.6825 134.526 36.4062C134.699 36.1299 134.784 35.8073 134.769 35.4814V34.5436C134.599 34.6462 134.413 34.7225 134.22 34.7699C134.003 34.8288 133.783 34.872 133.56 34.8992L132.856 34.9897C132.525 35.0189 132.203 35.1089 131.906 35.2551C131.733 35.3491 131.591 35.4903 131.496 35.6622C131.401 35.834 131.357 36.0295 131.369 36.2255C131.363 36.378 131.393 36.5298 131.457 36.6683C131.521 36.8068 131.617 36.928 131.738 37.0218Z" fill="#100D54"/>
<path d="M141.844 28.5669H143.007V38.0708H141.844V28.5669Z" fill="#100D54"/>
</g>
<defs>
<clipPath id="clip0_19_126">
<rect width="163" height="41" fill="white"/>
</clipPath>
</defs>
</svg>
