<svg width="221" height="56" viewBox="0 0 221 56" fill="none" xmlns="http://www.w3.org/2000/svg">
<g clip-path="url(#clip0_28_183)">
<path d="M25.3774 0.927612H47.1089V11.7891L25.3774 0.927612Z" fill="#00B3F6"/>
<path d="M25.3774 0.927612H47.1089V8.04903L25.3774 0.927612Z" fill="#00C9FF"/>
<path d="M21.7319 50.3222H0V39.4607L21.7319 50.3222Z" fill="#5453F9"/>
<path d="M21.7319 50.3222H0V46.5768L21.7319 50.3222Z" fill="#4243D3"/>
<path d="M77.463 0.927612L99.1945 11.7891V37.8131L52.4404 14.4449V0.927612H77.463Z" fill="#00C9FF"/>
<path d="M99.1945 11.7893V37.8133L52.4404 14.4451L99.1945 11.7893Z" fill="#00B3F6"/>
<path d="M99.1945 30.8606V37.8132L52.4404 14.4451L99.1945 30.8606Z" fill="#00A0EA"/>
<path d="M46.754 50.3221V24.2954L0 0.927612V26.9539L46.754 50.3221Z" fill="#5453F9"/>
<path d="M0 0.927612V26.9539L46.754 50.3221L0 0.927612Z" fill="#4243D3"/>
<path d="M85.108 50.3223H52.085V26.9518L91.9762 46.8893L85.108 50.3223Z" fill="#5453F9"/>
<path d="M85.108 50.3223H52.085V26.9518L85.108 50.3223Z" fill="#4243D3"/>
<path d="M206.159 46.0123H200.835V51.5937H206.159V46.0123Z" fill="#00B3F6"/>
<path d="M122.164 22.4388C122.158 23.084 122.215 23.7282 122.332 24.3626C122.423 24.8926 122.641 25.3928 122.966 25.8209C123.296 26.2315 123.725 26.5516 124.212 26.751C124.837 26.9956 125.505 27.1107 126.176 27.0893C127.094 27.0932 127.985 26.7713 128.689 26.1808C129.435 25.5751 129.808 24.6375 129.809 23.3681C129.822 22.7716 129.729 22.1775 129.534 21.6135C129.34 21.1045 129.029 20.6483 128.626 20.2819C128.129 19.8381 127.566 19.4742 126.957 19.2031C126.125 18.8236 125.271 18.492 124.401 18.2098C123.191 17.8195 122.018 17.3244 120.895 16.7299C119.973 16.2436 119.137 15.6079 118.423 14.8485C117.762 14.1324 117.265 13.2811 116.966 12.3537C116.639 11.2935 116.482 10.1881 116.501 9.07866C116.501 6.09159 117.332 3.86484 118.994 2.39841C120.655 0.931972 122.937 0.19914 125.838 0.19991C127.098 0.188883 128.355 0.338029 129.577 0.643771C130.654 0.908393 131.661 1.3982 132.535 2.08092C133.377 2.75813 134.043 3.62824 134.478 4.61771C134.97 5.78713 135.208 7.04804 135.176 8.31654V9.16419H129.345C129.345 7.72576 129.091 6.61945 128.584 5.84526C128.077 5.07107 127.232 4.68346 126.049 4.68244C125.471 4.66418 124.896 4.76462 124.358 4.97757C123.942 5.14942 123.573 5.41745 123.28 5.75972C123.012 6.08484 122.824 6.4687 122.731 6.88016C122.631 7.30964 122.582 7.74924 122.583 8.19017C122.555 9.01251 122.76 9.82606 123.174 10.5366C123.569 11.1711 124.414 11.7561 125.709 12.2916L130.403 14.321C131.403 14.7411 132.353 15.273 133.234 15.9065C133.91 16.3996 134.502 16.9991 134.987 17.6819C135.422 18.314 135.731 19.0248 135.895 19.7748C136.072 20.6087 136.157 21.4593 136.148 22.3116C136.148 25.4967 135.226 27.8151 133.381 29.2666C131.537 30.7181 128.967 31.4439 125.671 31.4439C122.235 31.4439 119.777 30.6971 118.299 29.2034C116.821 27.7097 116.081 25.568 116.081 22.7782V21.5511H122.164V22.4388Z" fill="white"/>
<path d="M155.581 5.78055H148.99V30.9789H142.907V5.78055H136.316V0.791748H155.581V5.78055Z" fill="white"/>
<path d="M168.001 0.791748L175.987 30.9793H169.65L168.256 24.5953H160.227L158.833 30.9793H152.496L160.481 0.791748H168.001ZM167.198 19.6061L164.283 6.03485H164.198L161.284 19.6065L167.198 19.6061Z" fill="white"/>
<path d="M191.196 21.4682H191.28V0.791748H196.855V30.9793H189.925L182.492 9.83964H182.408V30.9793H176.831V0.791748H183.844L191.196 21.4682Z" fill="white"/>
<path d="M210.079 0.791748C212.192 0.791748 213.896 1.13697 215.191 1.82742C216.465 2.49757 217.516 3.52654 218.212 4.78726C218.981 6.22671 219.475 7.79664 219.67 9.41697C219.936 11.421 220.063 13.441 220.05 15.4626C220.074 17.7762 219.912 20.0879 219.564 22.3752C219.328 24.0824 218.761 25.7269 217.895 27.2161C217.142 28.4528 216.039 29.4384 214.727 30.0488C213.138 30.7206 211.423 31.038 209.699 30.9789H200.109V0.791748H210.079ZM208.897 26.4975C209.788 26.5376 210.676 26.3485 211.474 25.9481C212.17 25.5246 212.71 24.8867 213.014 24.1299C213.446 23.065 213.703 21.937 213.774 20.7897C213.901 19.4091 213.965 17.6896 213.965 15.6314C213.965 13.9127 213.908 12.4048 213.796 11.1076C213.725 10.0008 213.49 8.91071 213.098 7.87309C212.796 7.07567 212.249 6.3948 211.535 5.92851C210.693 5.45357 209.734 5.22651 208.768 5.2735H206.191V26.4975H208.897Z" fill="white"/>
<path d="M121.708 42.5289C122.071 42.783 122.392 43.0924 122.659 43.4459V38.7214H124.169V51.5938H122.756V50.2926C122.442 50.8183 121.993 51.2497 121.455 51.5414C120.921 51.8055 120.332 51.9376 119.736 51.9267C119.216 51.9239 118.702 51.8044 118.234 51.5769C117.766 51.3495 117.355 51.0199 117.031 50.6124C116.231 49.6275 115.824 48.3813 115.888 47.1139C115.857 45.8537 116.222 44.6155 116.93 43.5731C117.258 43.0892 117.703 42.6974 118.225 42.4352C118.747 42.1729 119.327 42.0489 119.91 42.075C120.541 42.0528 121.164 42.2102 121.708 42.5289ZM118.183 49.5413C118.401 49.8779 118.705 50.1495 119.064 50.3277C119.423 50.5059 119.824 50.5842 120.223 50.5542C120.576 50.557 120.925 50.4727 121.237 50.309C121.55 50.1452 121.818 49.907 122.017 49.6153C122.485 48.9896 122.719 48.0916 122.719 46.9213C122.719 45.7397 122.478 44.8648 121.995 44.2967C121.781 44.0282 121.509 43.812 121.199 43.6644C120.889 43.5169 120.549 43.4419 120.206 43.4452C119.837 43.4352 119.47 43.5122 119.136 43.6699C118.801 43.8277 118.509 44.0617 118.281 44.3533C117.789 44.959 117.544 45.8498 117.544 47.0257C117.513 47.9083 117.735 48.7813 118.183 49.5421V49.5413Z" fill="white"/>
<path d="M131.852 38.7654H133.449V40.547H131.852V38.7654ZM131.852 42.2847H133.449V51.5942H131.852V42.2847Z" fill="white"/>
<path d="M146.403 42.6163C146.747 42.8669 147.053 43.1672 147.31 43.5075V42.3285H148.759V50.8343C148.803 51.7997 148.624 52.7623 148.235 53.6469C147.583 54.9161 146.353 55.5507 144.544 55.5507C143.648 55.5815 142.764 55.3459 142.003 54.8737C141.656 54.6376 141.371 54.3221 141.171 53.9536C140.97 53.585 140.861 53.174 140.851 52.7546H142.448C142.496 53.1167 142.654 53.4552 142.902 53.724C143.37 54.1123 143.972 54.3005 144.577 54.248C145.782 54.248 146.57 53.8229 146.942 52.9727C147.163 52.4718 147.265 51.5782 147.248 50.2918C146.967 50.7383 146.576 51.1051 146.113 51.3571C145.387 51.6801 144.583 51.7831 143.799 51.6535C143.015 51.5238 142.286 51.1673 141.702 50.6278C140.943 49.9085 140.563 48.7194 140.563 47.0603C140.563 45.4934 140.946 44.2708 141.711 43.3923C142.045 42.9788 142.467 42.6457 142.947 42.4174C143.427 42.1891 143.952 42.0716 144.483 42.0734C145.163 42.0587 145.831 42.2478 146.403 42.6163ZM146.595 44.302C146.374 44.033 146.096 43.8178 145.78 43.6725C145.464 43.5273 145.119 43.4558 144.771 43.4636C144.275 43.4355 143.783 43.5728 143.372 43.8539C142.962 44.1351 142.656 44.5444 142.502 45.0179C142.264 45.7172 142.154 46.454 142.179 47.1925C142.179 48.2456 142.393 49.0477 142.82 49.5986C143.02 49.8646 143.281 50.0784 143.581 50.2221C143.881 50.3657 144.212 50.435 144.544 50.4239C145.051 50.4516 145.554 50.3188 145.982 50.0445C146.409 49.7702 146.74 49.3682 146.927 48.8955C147.195 48.2576 147.326 47.5704 147.312 46.8785C147.311 45.7197 147.072 44.8609 146.595 44.302Z" fill="white"/>
<path d="M156.485 38.7654H158.082V40.547H156.485V38.7654ZM156.485 42.2847H158.082V51.5942H156.485V42.2847Z" fill="white"/>
<path d="M166.132 39.63H167.72V42.2408H169.212V43.5246H167.72V49.6292C167.704 49.7589 167.727 49.8904 167.786 50.007C167.845 50.1236 167.938 50.2201 168.051 50.2842C168.245 50.361 168.454 50.3937 168.662 50.3801C168.738 50.3801 168.819 50.3786 168.907 50.3755C168.994 50.3728 169.096 50.3655 169.212 50.3535V51.5938C169.028 51.6469 168.84 51.685 168.649 51.7075C168.439 51.7315 168.228 51.7432 168.017 51.7425C167.284 51.7425 166.786 51.5548 166.524 51.1792C166.245 50.7436 166.108 50.2321 166.131 49.7151V43.5234H164.866V42.2396H166.132V39.63Z" fill="white"/>
<path d="M181.153 45.9265C181.303 45.9214 181.449 45.8767 181.577 45.7969C181.704 45.7172 181.808 45.6051 181.878 45.4722C181.958 45.2818 181.994 45.0761 181.983 44.87C182.001 44.6423 181.957 44.414 181.856 44.2089C181.756 44.0039 181.602 43.8295 181.412 43.7041C180.91 43.4337 180.344 43.3083 179.775 43.3419C178.954 43.3419 178.372 43.5632 178.03 44.0058C177.809 44.3293 177.68 44.7063 177.655 45.0973H176.189C176.218 43.9445 176.591 43.1426 177.31 42.6915C178.061 42.2312 178.929 41.9962 179.81 42.0146C180.744 41.9739 181.671 42.1915 182.489 42.6434C182.821 42.8453 183.092 43.1343 183.272 43.4791C183.452 43.8238 183.534 44.2113 183.51 44.5995V49.9875C183.503 50.1258 183.538 50.2629 183.61 50.3809C183.664 50.438 183.73 50.4814 183.804 50.5072C183.878 50.5331 183.957 50.5406 184.034 50.5292C184.104 50.5292 184.182 50.525 184.27 50.5165C184.357 50.5076 184.45 50.4945 184.549 50.478V51.6369C184.366 51.6929 184.179 51.7367 183.99 51.7679C183.817 51.788 183.642 51.7968 183.467 51.7941C183.237 51.8119 183.006 51.7676 182.799 51.666C182.592 51.5644 182.416 51.4091 182.289 51.2162C182.14 50.9496 182.049 50.6553 182.019 50.3516C181.646 50.814 181.174 51.1873 180.638 51.4443C180.025 51.756 179.345 51.9146 178.657 51.9066C178.268 51.9219 177.88 51.8598 177.515 51.7241C177.151 51.5884 176.816 51.3817 176.532 51.116C176.263 50.863 176.051 50.556 175.908 50.2151C175.766 49.8743 175.698 49.5072 175.707 49.1379C175.685 48.7626 175.747 48.3871 175.887 48.0384C176.027 47.6897 176.243 47.3764 176.519 47.1209C177.122 46.6169 177.865 46.309 178.648 46.2386L181.153 45.9265ZM177.846 50.1794C178.181 50.4427 178.597 50.5816 179.024 50.5724C179.582 50.5709 180.131 50.4389 180.629 50.1871C181.034 50.014 181.376 49.7214 181.61 49.3484C181.844 48.9754 181.958 48.5398 181.938 48.0999V46.8338C181.708 46.9723 181.458 47.0753 181.196 47.1394C180.904 47.2188 180.607 47.2772 180.306 47.3139L179.355 47.4361C178.909 47.4755 178.474 47.5969 178.072 47.7944C177.839 47.9213 177.648 48.1119 177.519 48.3439C177.391 48.5759 177.332 48.8397 177.348 49.1044C177.339 49.3103 177.38 49.5152 177.467 49.7022C177.553 49.8892 177.683 50.0528 177.846 50.1794Z" fill="white"/>
<path d="M191.489 38.7654H193.06V51.5957H191.489V38.7654Z" fill="white"/>
</g>
<defs>
<clipPath id="clip0_28_183">
<rect width="220.05" height="55.35" fill="white" transform="translate(0 0.199951)"/>
</clipPath>
</defs>
</svg>
